<svg xmlns="http://www.w3.org/2000/svg" width="276.42" height="442.44" viewBox="0 0 276.42 442.44">
  <g id="Capa_2" data-name="Capa 2">
    <g id="Capa_1-2" data-name="Capa 1">
      <g>
        <path d="M9,95.3c-2.23,8.46,4.05,14.22,4.05,14.22,3.38,4.23,20.42,9,45.62,9s45.61-5.94,45.61-9c0,0,4.67-5.15,4-14.22" fill="#edac1a"/>
        <ellipse cx="58.7" cy="95.3" rx="49.67" ry="6.08" fill="#c58911"/>
        <path d="M77.25,98.62C36.65,98.62,7,86.12,5.4,85.43a8.91,8.91,0,0,1,7-16.38h0c.45.19,45.72,19.1,98.59,8.41a8.92,8.92,0,1,1,3.54,17.48A188.37,188.37,0,0,1,77.25,98.62Z" fill="#da4041"/>
        <path d="M10.26,67.29S22.88,55.45,39.72,66s13.61,14,28.47,10.5,26.24-17.57,39.86,0-2.72,16.1-4.46,12.63S97,79,91.33,82.5,82.3,95.76,67,89.33s-25-7.68-34.16-4S31.55,76.7,20.9,74a19.25,19.25,0,0,0-7.84-.63c-3.32.54-5.56-3.53-3.09-5.82Z" fill="#4d4f8f"/>
        <path d="M9.89,65.05s9.84-14.17,27.55-12.2,14.16-6.17,33.71-4.33S87.67,59.06,97,61.79s19.67,10.86,15.47,15.72-18.49-6-25.84,0-23,6.56-32.92.65-29-3.67-38.69-.39S3.2,73.31,9.89,65.05Z" fill="#fff"/>
        <ellipse cx="66.46" cy="58.71" rx="17.56" ry="7.78" fill="#da4041"/>
        <g>
          <rect x="38.58" y="6.53" width="2.91" height="56.93" transform="translate(-3.21 4.06) rotate(-5.58)" fill="#da4041"/>
          <path d="M37.2,8.61a4,4,0,0,1-1-.12,4.24,4.24,0,0,1-2.65-1.95A4.29,4.29,0,0,1,33,3.28h0A4.31,4.31,0,1,1,37.2,8.61ZM35.85,4a1.39,1.39,0,0,0,1,1.68,1.41,1.41,0,0,0,1.68-1,1.39,1.39,0,0,0-1-1.68,1.37,1.37,0,0,0-1.68,1Z" fill="#da4041"/>
        </g>
      </g>
      <rect x="59.88" y="71.21" width="133.19" height="226.04" rx="13.19" fill="#f6dfc3"/>
      <path d="M176.71,76.32H148.28l-1.49,6a10.47,10.47,0,0,1-10.16,7.94H116.3a10.47,10.47,0,0,1-10.15-7.94l-1.5-6H76.22A10.46,10.46,0,0,0,65.76,86.79V281.67a10.46,10.46,0,0,0,10.46,10.47h94.14c-2.08-13.69,2-33.64,5.17-48.93,2-9.73,3.62-17.56,3-20.69-.82-4.07-4.3-9.3-7.95-14.78-4.13-6.21-8.48-12.74-9.41-18.29-1.73-10.44,2.5-23.11,10.42-19.14,5.51,2.76,10.54,9.92,15.59,17.85V86.79A10.47,10.47,0,0,0,176.71,76.32ZM147.29,281.71H103.91a3.49,3.49,0,0,1,0-7h43.38a3.49,3.49,0,0,1,0,7Z" fill="none"/>
      <path d="M170.36,292.14H76.22a10.46,10.46,0,0,1-10.46-10.47V86.79A10.46,10.46,0,0,1,76.22,76.32h28.43l1.5,6c1.16,4.66,5.35,5.34,10.15,5.34h20.33c4.81,0,9-.68,10.16-5.34l1.49-6h28.43a10.47,10.47,0,0,1,10.47,10.47V188.16l7,11V86.79a17.45,17.45,0,0,0-17.45-17.45H76.23A17.45,17.45,0,0,0,58.78,86.79V263.42h0v18.25a17.45,17.45,0,0,0,17.45,17.45h97.4S170.87,297.54,170.36,292.14Z" fill="#da4041"/>
      <path d="M136.23,276.51H115a1.71,1.71,0,0,0,0,3.42h21.25a1.71,1.71,0,0,0,0-3.42Z" fill="#da4041"/>
      <path d="M52.37,159.87a10.93,10.93,0,0,0-5.24,20.52l11.65,6.37V159.87Z" fill="#edac1a"/>
      <path d="M58.78,198.67l-12.19,1.74a10,10,0,0,0,0,19.88l3.53.5-3.53.51a10,10,0,0,0,0,19.88l7.7,1.1a11.15,11.15,0,0,0,2.54,20.66l2,.49h0Z" fill="#edac1a"/>
      <path d="M208.91,263.9c-1.37-8.27-2.62-15.79-2.62-20.49a98.52,98.52,0,0,1,.75-11.24c.93-8.65,1.59-14.74-6-23.57a97.07,97.07,0,0,1-6.92-9.45l-7-11c-5.05-7.93-10.08-15.09-15.59-17.85-7.92-4-12.15,8.7-10.42,19.14.93,5.55,5.28,12.08,9.41,18.29,3.65,5.48,7.13,10.71,7.95,14.78.62,3.13,3.53,13.2-3,20.69-10.3,11.83-22.83,35.24-20.74,48.93.5,5.4.64,6.88.64,6.88l-71.2.1c5,7.26,22.11,33.13,53.73,38,11.12,1.72,18.31-15.23,42.3-22.19,9.72-2.82,18.85-5.47,26-7.15C216,306.6,212.12,283.2,208.91,263.9Z" fill="#edac1a"/>
      <path d="M276.41,344c-41.36-1.93-64-38.47-64-38.47h-18.3l-43.38,1.91-22.57,19.94s45.1,46.79,88.22,76.75l60,38.32V344Z" fill="#edac1a"/>
      <g>
        <path d="M96.2,209.82a8,8,0,0,0,2.16,7.58c1.8,2.26,10.89,4.82,24.32,4.82S147,219.05,147,217.4a10.67,10.67,0,0,0,2.16-7.58" fill="#edac1a"/>
        <ellipse cx="122.68" cy="209.82" rx="26.48" ry="3.24" fill="#c58911"/>
        <path d="M132.58,211.59a105,105,0,0,1-38.32-7A4.76,4.76,0,0,1,98,195.82h0c.24.11,24.38,10.19,52.58,4.49a4.75,4.75,0,1,1,1.88,9.32A100.21,100.21,0,0,1,132.58,211.59Z" fill="#da4041"/>
        <path d="M96.86,194.89s6.73-6.32,15.7-.72,7.27,7.45,15.19,5.6,14-9.37,21.25,0-1.45,8.58-2.38,6.74-3.5-5.36-6.53-3.51-4.82,7.07-13,3.64-13.34-4.09-18.22-2.11-.66-4.62-6.34-6.08a10.41,10.41,0,0,0-4.18-.33A1.84,1.84,0,0,1,96.7,195Z" fill="#4d4f8f"/>
        <path d="M96.66,193.69s5.25-7.55,14.69-6.5,7.55-3.29,18-2.31,8.82,5.62,13.78,7.08,10.49,5.79,8.26,8.38-9.87-3.22-13.78,0-12.24,3.49-17.56.34-15.46-2-20.63-.21S93.09,198.1,96.66,193.69Z" fill="#fff"/>
        <ellipse cx="126.83" cy="190.31" rx="9.36" ry="4.15" fill="#da4041"/>
        <g>
          <rect x="111.95" y="162.49" width="1.56" height="30.36" transform="translate(-16.73 11.79) rotate(-5.58)" fill="#da4041"/>
          <path d="M111.22,163.6a2.64,2.64,0,0,1-.55-.06,2.32,2.32,0,0,1-1.68-2.79h0a2.3,2.3,0,1,1,2.23,2.85Zm-.71-2.47a.74.74,0,1,0,.89-.54.73.73,0,0,0-.89.54Z" fill="#da4041"/>
        </g>
      </g>
      <polyline points="163.62 214.74 163.62 226.49 151.87 226.49" fill="none" stroke="#4d4f8f" stroke-miterlimit="10"/>
      <polyline points="84.22 170.6 84.22 158.84 95.97 158.84" fill="none" stroke="#4d4f8f" stroke-miterlimit="10"/>
      <g>
        <path d="M85.54,84.42h-9.4a2.34,2.34,0,0,0-1.66.69,2.31,2.31,0,0,0-.69,1.66v9.4a2.31,2.31,0,0,0,.69,1.66,2.34,2.34,0,0,0,1.66.69h9.4a2.36,2.36,0,0,0,2.35-2.35v-9.4a2.36,2.36,0,0,0-2.35-2.35Zm1.17,11.75h0a1.16,1.16,0,0,1-1.17,1.17h-9.4A1.18,1.18,0,0,1,75,96.17v-9.4a1.2,1.2,0,0,1,1.18-1.18h9.4a1.18,1.18,0,0,1,1.17,1.18Z" fill="#da4041"/>
        <path d="M80.84,87.94a3.53,3.53,0,1,0,2.49,1A3.52,3.52,0,0,0,80.84,87.94Zm0,5.88a2.36,2.36,0,1,1,1.66-.69A2.34,2.34,0,0,1,80.84,93.82Z" fill="#da4041"/>
        <path d="M85.54,87.65a.88.88,0,1,1-.88-.88.88.88,0,0,1,.88.88" fill="#da4041"/>
      </g>
      <path d="M97.47,299s9.92,8,58.59,8l-.63-8Z" fill="#c58911"/>
    </g>
  </g>
</svg>
