<svg xmlns="http://www.w3.org/2000/svg" width="34.16mm" height="23.84mm" viewBox="0 0 96.83 67.57">
  <g id="Capa_2" data-name="Capa 2">
    <g id="Capa_1-2" data-name="Capa 1">
      <g>
        <g>
          <path d="M1.32,39.4,16.09,63.1,48.81,23S39.4,9.47,2.27,32.86C.16,34.19,0,37.28,1.32,39.4Z" fill="#3a3f83"/>
          <path d="M41.38,53.17,80.67,38.38h0a1.28,1.28,0,0,0,.83-1.28l0-.41a36.47,36.47,0,0,0-2.83-11.34v-.1l0-.14V25c-2.3-4-5.2-8.09-5.2-8.09A33.1,33.1,0,0,0,43.18,5.53a37.59,37.59,0,0,0-8.37,2.21,42.68,42.68,0,0,0-18.48,14.1S3.11,38.25.06,58.64c0,0-.82,7.9,7.2,7.9S41.38,53.17,41.38,53.17ZM.06,58.64s-1.18,9.21,7.2,7.9c7.92-1.24,34.12-13.37,34.12-13.37" fill="#d29712"/>
          <path d="M45.2,7.11s-2.42-.54-9.13,3.14-2.47.22-7.37,1.88-12,11.17-11.8,15.58-7.56-.16-7,6.34C11.23,47.77-2,53.73,1.19,55.55c6.05,3.47,9.11-.43,9.28,4.64s10,2.2,11.33-5.75S28.59,35.86,47.18,30,76,21.09,76.38,18.48s0-11.38-5.19-12.75S51.51,7.48,45.2,7.11Z" fill="#e84142"/>
          <path d="M49.7.68s-11.41,3.59-14,13.08.86,18.45.86,18.45,7.39-.61,15.61-9.56S49.7.68,49.7.68Z" fill="#fff"/>
          <path d="M18.06,19s-2.71,11.65,4.12,18.73,16.33,8.65,16.33,8.65,3.24-6.68-.3-18.3S18.06,19,18.06,19Z" fill="#fff"/>
          <path d="M35,22.05c-2.31.5-5.7,4.58-6.73,2.33s-3.07,1.53-5.14,1.17-1.4-4.06.27-5.23A32.63,32.63,0,0,1,27.63,18l2.71-1.13Z" fill="#e84142"/>
          <path d="M58.42.68s-7.36,9.43-4.15,18.73S65.43,34.12,65.43,34.12s5.75-4.69,7.44-16.72S58.42.68,58.42.68Z" fill="#fff"/>
          <path d="M57.1,37.68s-1.06-9.48,5-16.41S74.69,9.43,76.38,3.85" fill="none" stroke="#4d509d" stroke-linecap="round" stroke-miterlimit="10" stroke-width="2"/>
          <path d="M29.15,19.46s5-8.1,14.05-9.82,17.24-1.5,22-4.84" fill="none" stroke="#4d509d" stroke-linecap="round" stroke-miterlimit="10" stroke-width="2"/>
          <path d="M15.43,33.29S23.88,28.88,32.52,32s15.6,7.5,21.42,7.06" fill="none" stroke="#4d509d" stroke-linecap="round" stroke-miterlimit="10" stroke-width="0.75"/>
          <path d="M52.06,44.27S43.61,48.68,35,45.56s-15.6-7.5-21.42-7.06" fill="none" stroke="#4d509d" stroke-linecap="round" stroke-miterlimit="10" stroke-width="2"/>
          <path d="M18.9,27c10.26.11,18.34,5.12,20.13,11.84a13,13,0,0,1-.51,7.78" fill="none" stroke="#4d509d" stroke-linecap="round" stroke-miterlimit="10" stroke-width="2"/>
          <path d="M61.53,23.51C65.45,14,73.11,8.39,80,9.24a12.92,12.92,0,0,1,7,3.36" fill="none" stroke="#4d509d" stroke-linecap="round" stroke-miterlimit="10" stroke-width="0.75"/>
          <path d="M64.35,30c-8.29-6-12-14.81-9.52-21.32a12.88,12.88,0,0,1,4.92-6" fill="none" stroke="#4d509d" stroke-linecap="round" stroke-miterlimit="10" stroke-width="0.75"/>
          <path d="M42.44,41.39c-8.29-6-12-14.81-9.52-21.32a12.92,12.92,0,0,1,4.93-6" fill="none" stroke="#4d509d" stroke-linecap="round" stroke-miterlimit="10" stroke-width="0.75"/>
          <path d="M.06,58.64s-.85,8,5.1,7.29,8.5-4.81,8.92-6.72l1.35,4.29-.27,3s-7,2-11.38.69S.06,58.64.06,58.64Z" fill="#fbba1b"/>
          <path d="M17.53,57.43a7.83,7.83,0,0,0-5.83,2.36C9,62.46,7.54,62.55,6,62.36" fill="none" stroke="#4d509d" stroke-linecap="round" stroke-miterlimit="10" stroke-width="0.75"/>
          <path d="M36.14,62.17s-5,2.87-10,.68l-.58-2.63L60.72,44.68S48.26,56.74,36.14,62.17Z" fill="#3a3f83"/>
          <path d="M14.47,66.48h0a1.34,1.34,0,0,0,.69,0L55.53,54.51,95.89,43h0a1.27,1.27,0,0,0,.94-1.21v-.41a36.84,36.84,0,0,0-1.9-11.52v-.35C93,25.29,90.41,21,90.41,21A33.12,33.12,0,0,0,61.19,7.17a38.49,38.49,0,0,0-8.53,1.52c-6.55,1.94-13.61,6.7-19.56,12.56-5.58,5.49-10.17,11.91-12.19,18-.26.81-.51,1.61-.81,2.41L16,52.64a32.14,32.14,0,0,0-2.45,11.18S13.78,66.51,14.47,66.48Z" fill="#fbba1b"/>
          <path d="M17.16,49.07c-.31.88,1,3.64,2.49,5.71a.94.94,0,0,1-.19,1.31.92.92,0,0,1-.56.19,1,1,0,0,1-.76-.38c-.9-1.22-3.75-5.38-2.68-7.63a2.44,2.44,0,0,1,2.29-1.33h.39L17.37,49S17.2,49,17.16,49.07Z" fill="#4d509d"/>
          <path d="M91.57,18.62c1.31-.55,2.64,1,2.72,2.38.35,6.21.62,21.9-5.36,24.45-7.5,3.2-44.06,14.38-55.3,17.72,0,0,7.56-16.52,6.44-24.15a3.22,3.22,0,0,1,1.66-3.28C48.81,31.9,69.91,27.71,91.57,18.62Z" fill="#4d509d"/>
          <path d="M73.79,44.4l-1.69-.87.08-.13a2.06,2.06,0,0,0,.22-1,5.18,5.18,0,0,0-.21-1.24L71.26,38l.39-.88a3,3,0,0,0,.72.16,4.35,4.35,0,0,0,1,0l-.09-.8a3.2,3.2,0,0,1-1.33-.1l.5-1.12h0a1.26,1.26,0,0,0,1.38-1.11A1.28,1.28,0,0,0,73.44,33l.65-1.49-.74-.33-.68,1.54A1.27,1.27,0,0,0,71.4,34a1.29,1.29,0,0,0,.34.87L71.26,36a1.68,1.68,0,0,1-.5-1l-.41.05-.4,0a2.55,2.55,0,0,0,.92,1.63l.06,0-.45,1-1.07.31,1.06,3.64c0,.17.08.34.11.51a1.14,1.14,0,0,1,0,.45,1,1,0,0,1-.2.37,1,1,0,0,1-.46.25.91.91,0,0,1-.51,0,.87.87,0,0,1-.35-.22,1.39,1.39,0,0,1-.25-.38c-.06-.16-.12-.32-.17-.48L67.57,38.6l-1.72.5,1.07,3.66-2.35,1a.35.35,0,0,0-.19.46.35.35,0,0,0,.16.18l4.82,2.55a.22.22,0,0,0,.13,0,.31.31,0,0,0,.19,0L73.78,45a.35.35,0,0,0,.17-.47.37.37,0,0,0-.16-.17Zm-4.25,1.8-4-2.11,1.61-.65a4.92,4.92,0,0,0,.24.45,2.2,2.2,0,0,0,.7.69,1.94,1.94,0,0,0,.75.24H69a4,4,0,0,0,1.21-.18,4.85,4.85,0,0,0,1.22-.52l.1-.07,1.25.64Z" fill="#fff"/>
        </g>
        <path d="M42.59,3.58s3-2.85,4.82-3.37,2.77-.15,3.8,1.69,1.54,2.25,1.51,3S50.7,5,49,4.21,45.4,8.13,44.88,6.54,44.6,3.66,43.5,4.09,42.29,3.84,42.59,3.58Z" fill="#e84142"/>
      </g>
    </g>
  </g>
</svg>
