<svg xmlns="http://www.w3.org/2000/svg" width="275.03" height="466.81" viewBox="0 0 275.03 466.81">
  <g id="Capa_2" data-name="Capa 2">
    <g id="Capa_1-2" data-name="Capa 1">
      <g>
        <path d="M274.6,250.72a40.7,40.7,0,0,0-1-7.19,52.14,52.14,0,0,0-9-19.6c-3.2-4.35-7.06-10.13-8-13.83-1.72-6.57-2.86-26-2.86-26s-9.18-108.4-7.47-111.83a17.25,17.25,0,0,0,2.29-3.15c.29-.85-2-6.87-2-6.87l-4-8.29H194.27l-4,8.29s-2.29,6-2,6.87a18.24,18.24,0,0,0,2.29,3.15c1.72,3.43-7.46,111.83-7.46,111.83s-1.11,19.45-2.87,26c-1,3.71-4.87,9.51-8.06,13.87a52.34,52.34,0,0,0-9,19.51,40.48,40.48,0,0,0-1,7.24c-.29,9.16,0,182.76,0,182.76s-.28,21.45,15.16,22.31,22.55,2.57,41,2.29c18.46.28,25.62-1.44,41-2.29s15.16-22.31,15.16-22.31S274.88,259.88,274.6,250.72Z" fill="#4d4f90"/>
        <g>
          <path d="M233.33,110.56H188.88l-5.76,73.78h52.49c-.33-8.43-.52-18-.52-29.13C235.09,137.45,234.41,122.74,233.33,110.56Z" fill="#db4041"/>
          <path d="M274.9,250.72a39.76,39.76,0,0,0-1-7.19,52,52,0,0,0-9-19.6c-3.19-4.35-7-10.13-8-13.83-1.71-6.57-2.86-26-2.86-26s-9.18-108.4-7.46-111.83a17.73,17.73,0,0,0,2.29-3.15c.29-.85-2-6.87-2-6.87l-4-8.29H218.53s11.36,4.55,12.06,20.48c.38,8.78,1.25,19.3,2.74,36.14H248l5.73,73.78H235.61c2.25,58.28,11.17,59.67,11.17,99.76,0,45.87,17.88,168.54-28.06,174,18.34-2.17,25.62-1.44,41-2.29s15.16-22.31,15.16-22.31S275.18,259.88,274.9,250.72Z" fill="#394080"/>
          <path d="M248.27,110.56H233.33c1.08,12.18,1.76,26.89,1.76,44.65,0,11.09.19,20.7.52,29.13H254Z" fill="#b02a31"/>
        </g>
        <path d="M233.1,163.43l-5.66-2.18a4.25,4.25,0,0,0,.21-.43,6.19,6.19,0,0,0,.35-3.16,15.41,15.41,0,0,0-1.09-3.84l-4-9.75.92-2.93a10.51,10.51,0,0,0,2.37.27,14.45,14.45,0,0,0,3.21-.38l-.56-2.52a10.22,10.22,0,0,1-4.24.16l1.17-3.72h.16a4,4,0,0,0,2.13-7.32l1.56-4.94-2.47-.78L225.5,127a4,4,0,0,0-2.19,7l-1.14,3.62a5.42,5.42,0,0,1-1.94-3L219,135l-1.26.27a8.26,8.26,0,0,0,3.47,4.83l.2.12-1.06,3.37L217,144.9,221.65,156a12.74,12.74,0,0,1,.53,1.58,3.68,3.68,0,0,1,.13,1.44,2.67,2.67,0,0,1-.51,1.23,3.22,3.22,0,0,1-1.37.95,2.88,2.88,0,0,1-1.58.26,2.52,2.52,0,0,1-1.19-.56,4.19,4.19,0,0,1-.92-1.13,14.8,14.8,0,0,1-.71-1.44l-4.61-11.13-5.27,2.18,4.66,11.22-7.08,3.83a1.12,1.12,0,0,0,.12,2l16.13,6.4a1.16,1.16,0,0,0,.42.08,1.21,1.21,0,0,0,.58-.16l12.3-7.37a1.15,1.15,0,0,0,.39-1.56,1.17,1.17,0,0,0-.57-.48Zm-12.81,7.16L207,165.3l4.86-2.63a12.27,12.27,0,0,0,.91,1.35,6.7,6.7,0,0,0,2.44,1.94,5.92,5.92,0,0,0,2.46.5l.6,0a12.73,12.73,0,0,0,3.77-1,15.2,15.2,0,0,0,3.68-2.08,3.47,3.47,0,0,0,.29-.25l4.16,1.6Z" fill="#fff"/>
        <path d="M210.49,17.25h52.29a4.45,4.45,0,0,1,4.45,4.45v5.5a0,0,0,0,1,0,0H206a0,0,0,0,1,0,0V21.7A4.45,4.45,0,0,1,210.49,17.25Z" transform="translate(74.61 -151.66) rotate(41.66)" fill="#4d4f90"/>
        <g>
          <path d="M19.28,417.17c-4.76,18.07,8.66,30.36,8.66,30.36,7.22,9,43.62,19.28,97.42,19.28s97.42-12.69,97.42-19.28c0,0,10-11,8.66-30.36" fill="#eead1a"/>
          <ellipse cx="125.36" cy="417.17" rx="106.08" ry="12.99" fill="#c68a11"/>
          <path d="M165,424.25c-86.72,0-150.09-26.7-153.47-28.15a19,19,0,0,1,15-35h0c1,.41,97.65,40.81,210.58,18a19,19,0,0,1,7.55,37.33A402.08,402.08,0,0,1,165,424.25Z" fill="#db4041"/>
          <path d="M21.9,357.35s27-25.3,62.93-2.87,29.08,29.84,60.81,22.43,56-37.54,85.13,0-5.82,34.37-9.52,27-14-21.45-26.18-14.05-19.3,28.33-52.08,14.58S89.59,388,70,396s-2.64-18.51-25.38-24.33c-7.21-1.84-12.66-2-16.75-1.33-7.09,1.14-11.88-7.55-6.6-12.43A5.69,5.69,0,0,1,21.9,357.35Z" fill="#4d4f90"/>
          <path d="M21.13,352.55S42.14,322.3,80,326.5s30.25-13.17,72-9.25,35.3,22.52,55.19,28.35,42,23.2,33.06,33.56-39.5-12.88-55.19,0-49,14-70.32,1.4-61.91-7.84-82.64-.84S6.84,370.2,21.13,352.55Z" fill="#fff"/>
          <ellipse cx="141.95" cy="339.02" rx="37.5" ry="16.61" fill="#db4041"/>
          <path d="M93.19,348.71,81.63,230.37A7.86,7.86,0,1,0,71.81,221h0a7.88,7.88,0,0,0,5.76,9.52c.16,0,.33.06.49.09L89.63,349.05ZM75.28,221.8a4.3,4.3,0,1,1,3.14,5.2A4.29,4.29,0,0,1,75.28,221.8Z" fill="#db4041"/>
        </g>
      </g>
    </g>
  </g>
</svg>
