<svg xmlns="http://www.w3.org/2000/svg" viewBox="0 0 512.1 144.71"><defs><style>.cls-1{fill:#4a4d94;}</style></defs><title>logo_cultiu</title><g id="Capa_2" data-name="Capa 2"><g id="Capa_1-2" data-name="Capa 1"><path class="cls-1" d="M210.28,96.33a25.54,25.54,0,0,1-2.57,11.56,29.38,29.38,0,0,1-6.64,8.78,28.58,28.58,0,0,1-9.31,5.56,29.86,29.86,0,0,1-10.38,1.93q-9.42,0-14-5.14t-4.61-19V30H138.56v73.85q0,20.76,8.46,30.83T175,144.71A40.92,40.92,0,0,0,194.22,140q9-4.71,16.7-15v16.27h23.76V30h-24.4Z"/><rect class="cls-1" x="252.23" width="24.4" height="141.28"/><path class="cls-1" d="M331.22,107.46q0,8.07,3.14,12l.39.46q3.54,3.86,10.38,3.85a53.52,53.52,0,0,0,7-.43,33.75,33.75,0,0,0,6.53-1.5l.23-.07V141a72,72,0,0,1-18.85,2.4c-2,0-3.85-.09-5.64-.25q-13.94-1.29-20.05-9.27Q307,124.38,307,105.32V49.24H289.48V30H307V0h24.19Z"/><path class="cls-1" d="M487.7,30V96.33a25.41,25.41,0,0,1-2.57,11.56,29.19,29.19,0,0,1-6.63,8.78,28.73,28.73,0,0,1-9.32,5.56,29.78,29.78,0,0,1-10.38,1.93q-9.42,0-14-5.14t-4.6-19V30H416v73.85q0,20.76,8.45,30.83t27.94,10.06A40.94,40.94,0,0,0,471.65,140q9-4.71,16.69-15v16.27H512.1V30Z"/><rect class="cls-1" x="374.03" y="49.24" width="24.4" height="92.05"/><rect class="cls-1" x="374.03" y="10.7" width="24.4" height="19.27"/><path class="cls-1" d="M8.69,133.26C3.08,122.75,0,110.08,0,95.85,0,54.68,25.47,26.38,64.58,26.38c34.22,0,56.61,21.87,60,51.71h-27C96.49,64.71,88,48.5,64.84,48.5,38.34,48.5,27,71.15,27,95.85c0,14.62,3.89,28.5,12.61,37.41Z"/><path class="cls-1" d="M119.29,133.26a58.09,58.09,0,0,0,5.24-20.69h-27c-.52,7.29-2.88,14.88-8,20.69Z"/><rect class="cls-1" y="133.26" width="127.79" height="8.02"/><rect class="cls-1" x="306.82" y="29.97" width="67.22" height="19.27"/></g></g></svg>