<svg xmlns="http://www.w3.org/2000/svg" width="30.45mm" height="50.65mm" viewBox="0 0 86.3 143.58">
  <g id="Capa_2" data-name="Capa 2">
    <g id="Capa_1-2" data-name="Capa 1">
      <path d="M84.26,116.71,68.35,110.6c.21-.41.41-.81.58-1.23a17.61,17.61,0,0,0,1-8.86,42.45,42.45,0,0,0-3.09-10.8L55.47,62.3l2.59-8.23a29.15,29.15,0,0,0,6.64.76,42.39,42.39,0,0,0,9-1.07l-1.58-7.1a28.67,28.67,0,0,1-11.92.46l3.28-10.47.46,0a11.16,11.16,0,0,0,6-20.58l4.36-13.9L67.41,0,62.89,14.38A11.16,11.16,0,0,0,56.74,34l-3.2,10.17a15.22,15.22,0,0,1-5.47-8.29l-3.56.79L41,37.4A23.3,23.3,0,0,0,50.72,51c.18.12.37.22.56.34l-3,9.46-9.23,3.84,13,31.28a36.84,36.84,0,0,1,1.51,4.44,10.39,10.39,0,0,1,.34,4,7.27,7.27,0,0,1-1.43,3.45,9,9,0,0,1-3.84,2.69,8.09,8.09,0,0,1-4.45.72,7,7,0,0,1-3.34-1.56,11.79,11.79,0,0,1-2.57-3.18,36.38,36.38,0,0,1-2-4.06l-13-31.28L8.5,77.32l13.09,31.53L1.68,119.61A3.19,3.19,0,0,0,2,125.39l45.35,18a3.13,3.13,0,0,0,1.18.22,3.19,3.19,0,0,0,1.64-.45l34.56-20.71a3.19,3.19,0,0,0-.5-5.72Zm-36,20.13L10.74,122l13.67-7.38A31.92,31.92,0,0,0,27,118.36a18.65,18.65,0,0,0,6.84,5.46,16.7,16.7,0,0,0,6.93,1.41c.55,0,1.13,0,1.7-.07A35.45,35.45,0,0,0,53,122.36a42.31,42.31,0,0,0,10.35-5.83c.29-.23.56-.46.83-.7l11.68,4.48Z" fill="#e84142"/>
    </g>
  </g>
</svg>
