<svg xmlns="http://www.w3.org/2000/svg" width="61.73" height="37.38" viewBox="0 0 61.73 37.38">
  <g id="Capa_2" data-name="Capa 2">
    <g id="Capa_1-2" data-name="Capa 1">
      <g id="Capa_2-2" data-name="Capa 2">
        <g id="Capa_1-2-2" data-name="Capa 1-2">
          <path d="M7.73,36.55H8V34.71l-.59.09v.07c.11,0,.29,0,.29.25v.55c0,.25-.24.73-.5.73s-.32-.24-.32-.49v-1.2l-.59.09v.07c.11,0,.29,0,.29.25v.74c0,.43.1.73.53.73a.67.67,0,0,0,.58-.47Zm41.86-2.07h.16L49.62,34c0-.12-.07-.16-.18-.16a.14.14,0,0,0-.15.12h0s0,.08.08.15Zm5.62,1.43c0,.19-.12.49-.39.49a.29.29,0,0,1-.29-.31c0-.38.52-.41.68-.41Zm0,.64h.3V35.34c0-.36-.09-.63-.61-.63s-.66.26-.68.49h.35c0-.1,0-.34.32-.34s.33.28.33.55v.15c-.26,0-1,0-1,.58a.44.44,0,0,0,.47.45.71.71,0,0,0,.55-.29Zm-2.06-2.21a.22.22,0,0,0,.22-.22h0a.22.22,0,0,0-.22-.22.22.22,0,0,0-.22.22.23.23,0,0,0,.22.22ZM53,36.55h.3V34.71l-.59.09v.07c.11,0,.29,0,.29.25Zm-1.65,0h.3v-.93c0-.24,0-.62.43-.62l.13,0v-.32h0a.52.52,0,0,0-.51.46v-.46l-.59.09v.07c.11,0,.29,0,.29.26Zm-2.22-.89c0-.32,0-.8.48-.8s.48.48.48.8,0,.78-.47.78-.49-.49-.49-.78Zm.48.93c.55,0,.81-.35.81-.93s-.31-.95-.81-.95-.81.38-.81.95.3.93.81.93Zm-1.51-.16H48c-.19,0-.33,0-.33-.28V34.88h.48v-.13h-.48v-.59l-.3.26v.33H47v.13h.3V36c0,.37,0,.55.56.55l.22,0ZM46.3,34.77a1.59,1.59,0,0,0-.43-.06c-.46,0-.63.21-.63.5,0,.51.91.51.91.9s-.17.33-.41.33a1.07,1.07,0,0,1-.51-.17v.25a1.41,1.41,0,0,0,.5.07c.39,0,.68-.16.68-.55,0-.61-.91-.55-.91-.94,0-.18.16-.24.32-.24a1,1,0,0,1,.47.14Zm-2-.43a.23.23,0,0,0,.22-.22h0a.22.22,0,0,0-.22-.22.22.22,0,0,0-.22.22.23.23,0,0,0,.22.22Zm-.14,2.21h.3V34.71l-.58.09v.07c.1,0,.29,0,.29.25Zm-2.43,0H42v-.84c0-.4.33-.81.53-.81s.26.25.26.49v1.16h.29V35.4c0-.27,0-.69-.46-.69s-.55.39-.61.52V33.84l-.6.08V34c.11,0,.31,0,.31.25Zm-2.9-.64c0,.19-.12.49-.39.49a.29.29,0,0,1-.29-.31c0-.38.52-.41.68-.41Zm0,.64h.3V35.34c0-.36-.09-.63-.61-.63s-.66.26-.68.49h.35c0-.1,0-.34.32-.34s.32.28.32.55v.15c-.25,0-1,0-1,.58a.44.44,0,0,0,.47.45.71.71,0,0,0,.55-.29Zm-2.21,0h.3V33.84l-.6.09V34c.11,0,.3,0,.3.25Zm-3.19,0h.3v-.93c0-.24.06-.62.43-.62l.13,0v-.32h0a.53.53,0,0,0-.51.46v-.46l-.59.09v.07c.11,0,.29,0,.29.26Zm-1.2-1.24h-.79a.43.43,0,0,1,.42-.45.38.38,0,0,1,.37.41Zm.29,1.08a.92.92,0,0,1-.28,0,.89.89,0,0,1-.81-.92v-.08h1.13v-.06a.6.6,0,0,0-.65-.67c-.56,0-.78.33-.78.88s.34,1,.91,1a1.59,1.59,0,0,0,.48-.07Zm-3.33-.92c0-.28.16-.61.43-.61s.43.52.43.79-.07.79-.42.79-.44-.43-.44-.69Zm-.29,1.91h.29V36.29a.55.55,0,0,0,.5.3c.5,0,.69-.44.69-1s-.22-.93-.72-.93a.51.51,0,0,0-.46.29v-.29l-.6.09v.06c.11,0,.3,0,.3.26ZM26,35.76c0,.3-.14.64-.42.64s-.46-.4-.46-.73.07-.81.43-.81.45.45.45.71Zm.3-.68c0-.24.19-.25.29-.26v-.07H26V35a.57.57,0,0,0-.48-.29c-.53,0-.73.41-.73.93s.24.91.72.91a.53.53,0,0,0,.48-.29v.29c0,.24,0,.64-.41.64s-.38-.16-.41-.31h-.36c0,.23.16.46.72.46s.76-.34.76-.74Zm-2.56-.74a.22.22,0,0,0,.21-.21h0a.21.21,0,0,0-.21-.22.22.22,0,0,0-.22.22.21.21,0,0,0,.21.22Zm-.14,2.21h.3V34.71l-.59.09v.07c.11,0,.29,0,.29.25Zm-1.22-1.24h-.79a.44.44,0,0,1,.43-.45.38.38,0,0,1,.36.41Zm.29,1.09a1.26,1.26,0,0,1-.27,0,.89.89,0,0,1-.81-.92v-.08h1.13v-.06a.61.61,0,0,0-.65-.67c-.57,0-.78.33-.78.88s.33,1,.9,1a1.3,1.3,0,0,0,.48-.07Zm-2.17-1.63a1.59,1.59,0,0,0-.43-.06c-.46,0-.63.21-.63.5,0,.51.91.51.91.9s-.17.33-.41.33a1.16,1.16,0,0,1-.51-.17v.25a1.41,1.41,0,0,0,.5.07c.39,0,.69-.16.69-.55,0-.61-.91-.55-.91-.94,0-.18.15-.24.32-.24a1,1,0,0,1,.46.14Zm-1.85,0a1.54,1.54,0,0,0-.43-.06c-.45,0-.63.21-.63.5,0,.51.91.51.91.9s-.17.33-.4.33a1.17,1.17,0,0,1-.52-.17v.25a1.44,1.44,0,0,0,.5.07c.4,0,.69-.16.69-.55,0-.61-.91-.55-.91-.94,0-.18.16-.24.32-.24a1,1,0,0,1,.47.14Zm-2.22,1.14c0,.19-.13.49-.39.49a.29.29,0,0,1-.3-.31c0-.38.53-.41.69-.41Zm0,.64h.3V35.34c0-.36-.09-.63-.61-.63s-.66.26-.68.49h.35a.3.3,0,0,1,.32-.34c.32,0,.32.28.32.55v.15c-.25,0-1,0-1,.58a.43.43,0,0,0,.46.45.69.69,0,0,0,.55-.29Zm-3-1.08c0-.28.16-.61.42-.61s.43.52.43.79-.06.79-.42.79-.43-.43-.43-.69Zm-.3,1.91h.3V36.29a.53.53,0,0,0,.49.3c.51,0,.69-.44.69-1s-.22-.93-.71-.93a.52.52,0,0,0-.47.29v-.29l-.61.09v.06c.12,0,.31,0,.31.26Zm-4-.83h.29v-.92c0-.26.27-.73.55-.73s.27.19.27.4v1.25h.3V35.17c0-.27-.09-.46-.46-.46a.75.75,0,0,0-.65.51v-.51l-.59.09v.07c.11,0,.3,0,.3.25Z" fill="#4d4f91" fill-rule="evenodd"/>
          <path d="M47.35,22.1H49.6l1.09,3c.32.9.86,2.33.86,2.33l-.06-1.61V22.1h2.13v9.51H51.37l-1.08-3c-.33-.9-.87-2.34-.87-2.34l0,1.61v3.74H47.35Z" fill="#4d4f91" fill-rule="evenodd"/>
          <path d="M27.18,22.13H32.6v1.92H29.4v1.74h3v1.87h-3v2h3.2v1.95H28.5a2.17,2.17,0,0,1-.82-.34,2.21,2.21,0,0,1-.5-1Z" fill="#4d4f91" fill-rule="evenodd"/>
          <path d="M0,22.11H2.21v6.42a2.54,2.54,0,0,0,.2,1.13A.67.67,0,0,0,3,30a.71.71,0,0,0,.65-.34,2.15,2.15,0,0,0,.22-1V22.11H6.13v6.67a3.07,3.07,0,0,1-.82,2.3A3.11,3.11,0,0,1,3,31.89a3.06,3.06,0,0,1-2.23-.78A3.15,3.15,0,0,1,0,28.78Z" fill="#4d4f91" fill-rule="evenodd"/>
          <path d="M34.39,30.37a6.07,6.07,0,0,1-1-3.48,7.42,7.42,0,0,1,.4-2.43,4,4,0,0,1,1.27-1.82,4.06,4.06,0,0,1,2.35-.51c.45,0,.53,0,1.2,0V24a8.31,8.31,0,0,0-1.22,0,1.48,1.48,0,0,0-1.31.67A3.73,3.73,0,0,0,35.68,27c.17,2,.48,2.09.48,2.12a1.5,1.5,0,0,0,1.3.64,8,8,0,0,0,1.22,0v1.9h-1.2a4.09,4.09,0,0,1-2.36-.51,3.75,3.75,0,0,1-.65-.67Z" fill="#4d4f91" fill-rule="evenodd"/>
          <path d="M7.55,27.83V22.1H9.71v5.72a9.22,9.22,0,0,0,.1,1.33c.18.78,1.48.71,2,.71H13v1.86H11.61a6.75,6.75,0,0,1-1.95-.15,2.62,2.62,0,0,1-1.89-1.74A6.87,6.87,0,0,1,7.55,27.83Z" fill="#4d4f91" fill-rule="evenodd"/>
          <path d="M13.38,27.83V22.1h2.15v5.72a7.49,7.49,0,0,0,.11,1.33c.18.78,1.47.71,2,.71h1.2v1.86H17.43a6.62,6.62,0,0,1-1.94-.15,2.63,2.63,0,0,1-1.9-1.74A7.32,7.32,0,0,1,13.38,27.83Z" fill="#4d4f91" fill-rule="evenodd"/>
          <path d="M59,22.08H57.19L54.54,31.6l1.88,0L57,29.71h2.19l.52,1.92,2,0ZM57.38,28l.7-2.49L58.76,28Z" fill="#4d4f91"/>
          <path d="M42.54,22.08a2.72,2.72,0,0,0-1.67.6,3.9,3.9,0,0,0-1.25,1.75A7.25,7.25,0,0,0,39.18,27a6.27,6.27,0,0,0,.91,3.49,2.88,2.88,0,0,0,2.56,1.39,3.08,3.08,0,0,0,2.6-1.34,5.9,5.9,0,0,0,1-3.61,5.73,5.73,0,0,0-1-3.56A3.25,3.25,0,0,0,42.54,22.08Zm1.11,7c-.24.54-.56.8-1,.8s-.72-.26-.95-.77A5.38,5.38,0,0,1,41.4,27a5.22,5.22,0,0,1,.35-2.11,1.11,1.11,0,0,1,1-.77c.35,0,.64.25.88.74A5.14,5.14,0,0,1,44,27a5.2,5.2,0,0,1-.37,2.12Z" fill="#4d4f91"/>
          <path d="M24.76,22.72a3.5,3.5,0,0,0-2.08-.59H19.91v9.52h2.48a3.41,3.41,0,0,0,2.9-1.33,5.87,5.87,0,0,0,1-3.54,7.54,7.54,0,0,0-.36-2.39A3.15,3.15,0,0,0,24.76,22.72Zm-2.48,7.07h-.15V24h.29a1.26,1.26,0,0,1,1.21.74A4.43,4.43,0,0,1,24,26.66C24,28.74,23.43,29.79,22.28,29.79Z" fill="#4d4f91"/>
          <path d="M11.75,11.84A3.9,3.9,0,0,1,15.2,8.39a2.93,2.93,0,0,1,2.93,2.93h0c0,1.62-.62,2.92-2.24,2.92S11.75,13.45,11.75,11.84Z" fill="#4d4f91" fill-rule="evenodd"/>
          <path d="M19.67,8.6c0-2.32.9-4.69,3.21-4.69s5.28,1.24,5.28,3.55-2.62,5.84-4.94,5.84S19.67,10.91,19.67,8.6Z" fill="#4d4f91" fill-rule="evenodd"/>
          <path d="M27.58,14.71c0-3.4,4.07-7.35,7.47-7.35s4.69,3.37,4.69,6.77-.73,5.74-4.12,5.74S27.58,18.11,27.58,14.71Z" fill="#4d4f91" fill-rule="evenodd"/>
          <path d="M41.42,8.74C41.2,3.69,47.46.12,52.66,0c4.14-.1,9.07,5.59,9.07,10.8s-8.33,8.83-13.54,8.83S41.66,13.93,41.42,8.74Z" fill="#4d4f91" fill-rule="evenodd"/>
        </g>
      </g>
    </g>
  </g>
</svg>
