<svg xmlns="http://www.w3.org/2000/svg" width="81.38" height="41.27" viewBox="0 0 81.38 41.27">
  <g id="Capa_2" data-name="Capa 2">
    <g id="Capa_1-2" data-name="Capa 1">
      <g>
        <path d="M44.08,38.74a1,1,0,0,1-.74.35c-.58,0-.9-.46-.9-1.32s.32-1.32.9-1.32a1.08,1.08,0,0,1,.74.35Zm1-4.55h-1v1.94h0a1.39,1.39,0,0,0-1-.45,1.78,1.78,0,0,0-1.61,2c0,1.26.54,2.21,1.61,2.21a1.49,1.49,0,0,0,1.09-.51l0,.43h.82Z" fill="#4d4f91" fill-rule="evenodd"/>
        <polygon points="46.15 36.45 46.66 36.45 47.16 35.29 47.16 34.19 46.09 34.19 46.09 35.29 46.55 35.29 46.15 36.45" fill="#4d4f91" fill-rule="evenodd"/>
        <path d="M51.58,37.74c0,.91-.36,1.23-1.08,1.23s-1.08-.32-1.08-1.23V34.19H48.35V37.7a2.15,2.15,0,1,0,4.3,0V34.19H51.58Z" fill="#4d4f91" fill-rule="evenodd"/>
        <rect x="53.9" y="34.19" width="0.96" height="5.6" fill="#4d4f91"/>
        <rect x="56.06" y="34.19" width="0.96" height="5.6" fill="#4d4f91"/>
        <path d="M60.47,38.74a1,1,0,0,1-.74.35c-.58,0-.9-.46-.9-1.32s.32-1.32.9-1.32a1.08,1.08,0,0,1,.74.35Zm1-4.55h-1v1.94h0a1.41,1.41,0,0,0-1-.45,1.79,1.79,0,0,0-1.62,2c0,1.26.55,2.21,1.62,2.21a1.49,1.49,0,0,0,1.09-.51l0,.43h.81Z" fill="#4d4f91" fill-rule="evenodd"/>
        <path d="M65.51,37.93v-.4a1.69,1.69,0,0,0-1.64-1.85c-1.1,0-1.75.81-1.75,2.09s.65,2.1,1.7,2.1a1.83,1.83,0,0,0,1.69-.82l-.69-.44a1.07,1.07,0,0,1-.9.48c-.45,0-.83-.32-.84-1.16Zm-2.43-.65c0-.56.31-.89.77-.89s.76.33.78.89Z" fill="#4d4f91" fill-rule="evenodd"/>
        <path d="M69.34,36.76a1.58,1.58,0,0,0-1.59-1.08c-1.09,0-1.75.81-1.75,2.09s.66,2.1,1.75,2.1a1.64,1.64,0,0,0,1.61-1l-.72-.41a1,1,0,0,1-.86.64c-.57,0-.82-.42-.82-1.32s.25-1.32.79-1.32.64.28.79.62Z" fill="#4d4f91" fill-rule="evenodd"/>
        <path d="M69.88,37.77c0,1.28.66,2.1,1.75,2.1s1.76-.82,1.76-2.1-.66-2.09-1.76-2.09S69.88,36.49,69.88,37.77Zm2.54,0c0,.9-.25,1.32-.79,1.32s-.79-.42-.79-1.32.26-1.32.79-1.32S72.42,36.87,72.42,37.77Z" fill="#4d4f91" fill-rule="evenodd"/>
        <path d="M75,39.79V36.88a1.21,1.21,0,0,1,.9-.43c.33,0,.5.17.5.72v2.62h1V37c0-.82-.39-1.35-1.19-1.35a2.25,2.25,0,0,0-1.25.51v-.44h-.88v4Z" fill="#4d4f91" fill-rule="evenodd"/>
        <path d="M80.34,38.73a1.65,1.65,0,0,1-.89.42.43.43,0,0,1-.46-.47c0-.57.71-.7,1.35-.82Zm1,1.06a1.85,1.85,0,0,1-.08-.58v-1.9c0-1.21-.46-1.61-1.55-1.63a1.82,1.82,0,0,0-1.51.73l.63.48a1,1,0,0,1,.88-.5c.34,0,.59.17.59.48v.34c-1.57.19-2.31.67-2.31,1.59a1,1,0,0,0,1.09,1.07,2.06,2.06,0,0,0,1.26-.43l.06.35Z" fill="#4d4f91" fill-rule="evenodd"/>
        <path d="M0,39.79H1.06l.34-1.21H3.17l.31,1.21H4.54L3,34.19H1.61Zm2.29-4.52h0l.62,2.43H1.63Z" fill="#4d4f91" fill-rule="evenodd"/>
        <path d="M6.3,35v-.9h-1V35ZM4.66,41.2a1.9,1.9,0,0,0,.51.07c.79,0,1.13-.35,1.13-1.17V35.75h-1V40c0,.38-.13.49-.36.49l-.32,0Z" fill="#4d4f91" fill-rule="evenodd"/>
        <path d="M9.65,35.75v2.92a1.24,1.24,0,0,1-.9.42c-.32,0-.49-.17-.49-.71V35.75h-1v2.77c0,.82.39,1.35,1.2,1.35a2.32,2.32,0,0,0,1.24-.51v.43h.89v-4Z" fill="#4d4f91" fill-rule="evenodd"/>
        <path d="M12.57,39.79V36.88a1.21,1.21,0,0,1,.9-.43c.33,0,.5.17.5.72v2.62h1V37c0-.82-.39-1.35-1.19-1.35a2.25,2.25,0,0,0-1.25.51v-.44h-.88v4Z" fill="#4d4f91" fill-rule="evenodd"/>
        <path d="M15.52,35.75v.78h.56v2.41c0,.57.28.93,1,.93a6.32,6.32,0,0,0,.76-.06V39a1.63,1.63,0,0,1-.44.08c-.24,0-.35-.06-.35-.28V36.53h.79v-.78H17V34.42h-1v1.33Z" fill="#4d4f91" fill-rule="evenodd"/>
        <path d="M20.46,38.73a1.65,1.65,0,0,1-.88.42.44.44,0,0,1-.47-.47c0-.57.71-.7,1.35-.82Zm1,1.06a1.85,1.85,0,0,1-.08-.58v-1.9c0-1.21-.46-1.61-1.55-1.63a1.79,1.79,0,0,0-1.5.73l.62.48a1,1,0,0,1,.88-.5c.34,0,.59.17.59.48v.34c-1.57.19-2.31.67-2.31,1.59a1,1,0,0,0,1.09,1.07,2.06,2.06,0,0,0,1.26-.43l.06.35Z" fill="#4d4f91" fill-rule="evenodd"/>
        <path d="M23.35,39.79v-2.9a1.46,1.46,0,0,1,.81-.44.45.45,0,0,1,.48.52v2.82h1v-2.9a1.46,1.46,0,0,1,.81-.44.45.45,0,0,1,.48.52v2.82h1v-2.9c0-1-.57-1.21-1-1.21a1.78,1.78,0,0,0-1.39.59,1.07,1.07,0,0,0-1-.59,1.61,1.61,0,0,0-1.21.51v-.44h-.87v4Z" fill="#4d4f91" fill-rule="evenodd"/>
        <path d="M31.94,37.93v-.4a1.69,1.69,0,0,0-1.65-1.85c-1.09,0-1.75.81-1.75,2.09s.66,2.1,1.71,2.1a1.84,1.84,0,0,0,1.69-.82l-.7-.44a1.07,1.07,0,0,1-.9.48c-.45,0-.82-.32-.84-1.16Zm-2.44-.65c0-.56.31-.89.78-.89s.76.33.77.89Z" fill="#4d4f91" fill-rule="evenodd"/>
        <path d="M33.69,39.79V36.88a1.25,1.25,0,0,1,.9-.43c.33,0,.5.17.5.72v2.62h1V37c0-.82-.38-1.35-1.19-1.35a2.19,2.19,0,0,0-1.24.51v-.44h-.89v4Z" fill="#4d4f91" fill-rule="evenodd"/>
        <path d="M36.64,35.75v.78h.56v2.41c0,.57.28.93,1,.93a6.65,6.65,0,0,0,.77-.06V39a1.7,1.7,0,0,1-.45.08c-.24,0-.35-.06-.35-.28V36.53H39v-.78h-.8V34.42h-1v1.33Z" fill="#4d4f91" fill-rule="evenodd"/>
        <path d="M40.82,30.17,52.65,18.33,40.82,6.5,29,18.33Zm12-11.84a34.6,34.6,0,0,1-5.42,6.47,36.46,36.46,0,0,1-6.59,5.54,34.6,34.6,0,0,1-6.47-5.42,36,36,0,0,1-5.53-6.59,34.58,34.58,0,0,1,5.41-6.47,36,36,0,0,1,6.59-5.53,34.18,34.18,0,0,1,6.47,5.41A36.46,36.46,0,0,1,52.83,18.33Z" fill="#4d4f91"/>
        <path d="M40.82,30.17,52.65,18.33,40.82,6.5,29,18.33Zm12-11.84a34.6,34.6,0,0,1-5.42,6.47,36.46,36.46,0,0,1-6.59,5.54,34.6,34.6,0,0,1-6.47-5.42,36,36,0,0,1-5.53-6.59,34.58,34.58,0,0,1,5.41-6.47,36,36,0,0,1,6.59-5.53,34.18,34.18,0,0,1,6.47,5.41A36.46,36.46,0,0,1,52.83,18.33Z" fill="#4d4f91"/>
        <path d="M40.81,2.46a19.45,19.45,0,0,0-6.45,1.07l-.73-2.37c.5-.16,1-.3,1.45-.41.05.19.27.91.27.91s.59-.15,1.51-.31l-.2-1c.6-.11,1.15-.19,1.66-.25l.16,1C39,1.08,39.45,1,40,1V0h1.7V1c.52,0,1,.07,1.5.12l.16-1c.5.06,1.05.14,1.65.25l-.2,1c.92.16,1.51.31,1.51.31s.22-.73.27-.92c.47.12.95.26,1.45.42l-.72,2.37A20,20,0,0,0,40.81,2.46Z" fill="#4d4f91"/>
        <path d="M41.74,3.26a.43.43,0,0,1,.49-.36.41.41,0,0,1,.41.43l-.07.76c-.3,0-.6,0-.91-.06Z" fill="#4d4f91"/>
        <path d="M44.44,3.58a.46.46,0,0,1,.54-.3.4.4,0,0,1,.35.47l-.18.72-.88-.17Z" fill="#4d4f91"/>
        <path d="M39.81,3.27l.07.77q-.45,0-.9.06l-.07-.77a.41.41,0,0,1,.41-.42A.44.44,0,0,1,39.81,3.27Z" fill="#4d4f91"/>
        <path d="M37.09,3.59l.18.73c-.29,0-.59.11-.88.18l-.18-.75a.4.4,0,0,1,.35-.47A.46.46,0,0,1,37.09,3.59Z" fill="#4d4f91"/>
        <path d="M34.89,5.25a19.1,19.1,0,0,1,5.93-.91,19.41,19.41,0,0,1,5.94.91L46.4,6.42a17.26,17.26,0,0,0-11.15,0Z" fill="#4d4f91" fill-rule="evenodd"/>
        <path d="M34.9,14.37a1.65,1.65,0,0,1,3.06,0h-.54a1.16,1.16,0,0,0-1-.57,1.17,1.17,0,0,0-1,.57Z" fill="#4d4f91"/>
        <path d="M36,14.75a.45.45,0,0,1,.46-.46.46.46,0,0,1,.46.46.47.47,0,0,1-.46.46A.46.46,0,0,1,36,14.75Z" fill="#4d4f91"/>
        <path d="M43.67,14.37a1.66,1.66,0,0,1,3.07,0H46.2a1.17,1.17,0,0,0-1-.57,1.16,1.16,0,0,0-1,.57Z" fill="#4d4f91"/>
        <path d="M44.75,14.75a.46.46,0,1,1,.91,0,.46.46,0,1,1-.91,0Z" fill="#4d4f91"/>
        <polygon points="40 9.33 40.82 9.63 41.66 9.33 41.32 10.48 42.47 10.15 42.19 10.99 42.47 11.8 41.32 11.46 41.66 12.62 40.82 12.33 40 12.62 40.34 11.46 39.19 11.8 39.47 10.98 39.19 10.15 40.34 10.48 40 9.33" fill="#4d4f91"/>
        <path d="M36.71,16.77h.49v-.36h.49v.36h.49v-.36h.49v.82h-.23v1.15h.86L39.4,16h-.32v-.82h.49v.38h.49v-.38h.49v.38H41v-.38h.49v.38H42v-.38h.49V16h-.27l.1,2.4h.9V17.23H43v-.82h.49v.36H44v-.36h.49v.36H45v-.36h.49v.82h-.23v1.13h.39v.77h-.38l1.2,3.67H41.86V21.3a1,1,0,1,0-2.06,0v1.5H35.23l1.2-3.67H36v-.75h.44V17.23h-.25v-.82h.49Z" fill="#4d4f91"/>
      </g>
    </g>
  </g>
</svg>
