<svg xmlns="http://www.w3.org/2000/svg" width="13.93" height="13.93" viewBox="0 0 13.93 13.93">
  <g id="Capa_2" data-name="Capa 2">
    <g id="Capa_1-2" data-name="Capa 1">
      <g>
        <path d="M11.61,0H2.32A2.32,2.32,0,0,0,0,2.32v9.29a2.32,2.32,0,0,0,.68,1.64,2.36,2.36,0,0,0,1.64.68h9.29a2.32,2.32,0,0,0,2.32-2.32V2.32A2.36,2.36,0,0,0,13.25.68,2.32,2.32,0,0,0,11.61,0Zm1.16,11.61h0a1.16,1.16,0,0,1-1.16,1.16H2.32a1.15,1.15,0,0,1-.82-.34,1.17,1.17,0,0,1-.34-.82V2.32A1.16,1.16,0,0,1,2.32,1.16h9.29a1.17,1.17,0,0,1,.82.34,1.15,1.15,0,0,1,.34.82Z" fill="#4d4f9c"/>
        <path d="M7,3.48a3.48,3.48,0,1,0,2.47,1A3.49,3.49,0,0,0,7,3.48ZM7,9.29A2.33,2.33,0,0,1,7,4.64a2.33,2.33,0,0,1,1.65,4A2.36,2.36,0,0,1,7,9.29Z" fill="#4d4f9c"/>
        <path d="M11.61,3.19a.87.87,0,1,1-.87-.87.87.87,0,0,1,.87.87" fill="#4d4f9c"/>
      </g>
    </g>
  </g>
</svg>
