<svg xmlns="http://www.w3.org/2000/svg" width="24.92mm" height="24.92mm" viewBox="0 0 70.64 70.64">
  <g id="Capa_2" data-name="Capa 2">
    <g id="Capa_1-2" data-name="Capa 1">
      <g>
        <g>
          <rect x="14.62" y="36.54" width="2.44" height="2.44" fill="none"/>
          <rect x="43.85" y="48.72" width="2.44" height="2.44" fill="none"/>
          <polygon points="41.41 19.49 38.98 19.49 38.98 21.92 36.54 21.92 36.54 24.36 38.98 24.36 41.41 24.36 41.41 21.92 41.41 19.49" fill="none"/>
          <polygon points="36.54 12.18 36.54 9.74 34.1 9.74 31.67 9.74 31.67 12.18 34.1 12.18 36.54 12.18" fill="none"/>
          <polygon points="43.85 9.74 43.85 7.31 41.41 7.31 41.41 9.74 41.41 12.18 41.41 14.62 41.41 17.05 43.85 17.05 43.85 14.62 46.28 14.62 46.28 12.18 43.85 12.18 43.85 9.74" fill="none"/>
          <rect x="24.36" y="58.46" width="2.44" height="2.44" fill="none"/>
          <rect x="51.16" y="29.23" width="2.44" height="2.44" fill="none"/>
          <polygon points="46.28 53.59 43.85 53.59 43.85 56.03 43.85 58.46 46.28 58.46 46.28 60.9 48.72 60.9 48.72 58.46 48.72 56.03 48.72 53.59 48.72 51.16 46.28 51.16 46.28 53.59" fill="none"/>
          <rect x="63.33" y="46.28" width="2.44" height="2.44" fill="none"/>
          <rect x="60.9" y="56.03" width="2.44" height="2.44" fill="none"/>
          <rect x="2.44" y="34.1" width="2.44" height="2.44" fill="none"/>
          <polygon points="41.41 53.59 41.41 51.16 41.41 48.72 38.98 48.72 36.54 48.72 36.54 51.16 36.54 53.59 38.98 53.59 41.41 53.59" fill="none"/>
          <polygon points="31.67 24.36 34.1 24.36 34.1 21.92 34.1 19.49 36.54 19.49 38.98 19.49 38.98 17.05 38.98 14.62 38.98 12.18 36.54 12.18 36.54 14.62 36.54 17.05 34.1 17.05 34.1 14.62 31.67 14.62 31.67 17.05 31.67 19.49 29.23 19.49 29.23 21.92 31.67 21.92 31.67 24.36" fill="none"/>
          <path d="M51.16,51.16v7.3h7.3v-7.3h-7.3ZM56,56H53.59V53.59H56Z" fill="none"/>
          <polygon points="26.8 17.05 29.23 17.05 29.23 14.62 31.67 14.62 31.67 12.18 29.23 12.18 26.8 12.18 26.8 14.62 26.8 17.05" fill="none"/>
          <rect x="38.98" y="4.87" width="2.44" height="2.44" fill="none"/>
          <polygon points="17.05 34.1 19.49 34.1 19.49 31.67 17.05 31.67 14.62 31.67 12.18 31.67 12.18 34.1 14.62 34.1 17.05 34.1" fill="none"/>
          <polygon points="60.9 53.59 63.34 53.59 65.77 53.59 68.21 53.59 68.21 51.16 65.77 51.16 63.34 51.16 63.34 48.72 60.9 48.72 60.9 51.16 60.9 53.59" fill="none"/>
          <polygon points="41.41 60.9 41.41 58.46 41.41 56.03 38.98 56.03 38.98 58.46 38.98 60.9 38.98 63.34 41.41 63.34 43.85 63.34 43.85 60.9 41.41 60.9" fill="none"/>
          <polygon points="36.54 53.59 34.1 53.59 34.1 56.03 31.67 56.03 29.23 56.03 26.8 56.03 26.8 58.46 29.23 58.46 31.67 58.46 34.1 58.46 36.54 58.46 36.54 56.03 36.54 53.59" fill="none"/>
          <rect x="29.23" y="51.16" width="2.44" height="2.44" fill="none"/>
          <polygon points="58.46 60.9 56.03 60.9 56.03 63.34 53.59 63.34 51.16 63.34 51.16 65.77 51.16 68.21 53.59 68.21 53.59 65.77 56.03 65.77 58.46 65.77 58.46 63.34 58.46 60.9" fill="none"/>
          <rect x="53.59" y="31.67" width="2.44" height="2.44" fill="none"/>
          <polygon points="63.34 24.36 60.9 24.36 60.9 21.92 58.46 21.92 56.03 21.92 56.03 24.36 56.03 26.8 58.46 26.8 60.9 26.8 60.9 29.23 63.34 29.23 63.34 26.8 63.34 24.36" fill="none"/>
          <polygon points="53.59 46.28 51.16 46.28 51.16 48.72 53.59 48.72 56.03 48.72 56.03 46.28 56.03 43.85 53.59 43.85 53.59 46.28" fill="none"/>
          <rect x="19.49" width="2.44" height="2.44" fill="#4d509d"/>
          <rect x="26.8" width="2.44" height="2.44" fill="#4d509d"/>
          <rect x="43.85" width="2.44" height="2.44" fill="#4d509d"/>
          <rect x="19.49" y="2.44" width="2.44" height="2.44" fill="#4d509d"/>
          <rect x="24.36" y="2.44" width="2.44" height="2.44" fill="#4d509d"/>
          <rect x="26.8" y="2.44" width="2.44" height="2.44" fill="#4d509d"/>
          <rect x="31.67" y="2.44" width="2.44" height="2.44" fill="#4d509d"/>
          <rect x="38.98" y="2.44" width="2.44" height="2.44" fill="#4d509d"/>
          <rect x="41.41" y="2.44" width="2.44" height="2.44" fill="#4d509d"/>
          <rect x="43.85" y="2.44" width="2.44" height="2.44" fill="#4d509d"/>
          <rect x="46.28" y="2.44" width="2.44" height="2.44" fill="#4d509d"/>
          <rect x="21.92" y="4.87" width="2.44" height="2.44" fill="#4d509d"/>
          <rect x="24.36" y="4.87" width="2.44" height="2.44" fill="#4d509d"/>
          <rect x="26.8" y="4.87" width="2.44" height="2.44" fill="#4d509d"/>
          <rect x="36.54" y="4.87" width="2.44" height="2.44" fill="#4d509d"/>
          <rect x="41.41" y="4.87" width="2.44" height="2.44" fill="#4d509d"/>
          <rect x="43.85" y="4.87" width="2.44" height="2.44" fill="#4d509d"/>
          <rect x="46.28" y="4.87" width="2.44" height="2.44" fill="#4d509d"/>
          <rect x="48.72" y="4.87" width="2.44" height="2.44" fill="#4d509d"/>
          <rect x="19.49" y="7.31" width="2.44" height="2.44" fill="#4d509d"/>
          <rect x="21.92" y="7.31" width="2.44" height="2.44" fill="#4d509d"/>
          <rect x="26.8" y="7.31" width="2.44" height="2.44" fill="#4d509d"/>
          <rect x="29.23" y="7.31" width="2.44" height="2.44" fill="#4d509d"/>
          <rect x="31.67" y="7.31" width="2.44" height="2.44" fill="#4d509d"/>
          <rect x="34.1" y="7.31" width="2.44" height="2.44" fill="#4d509d"/>
          <rect x="36.54" y="7.31" width="2.44" height="2.44" fill="#4d509d"/>
          <rect x="38.98" y="7.31" width="2.44" height="2.44" fill="#4d509d"/>
          <rect x="43.85" y="7.31" width="2.44" height="2.44" fill="#4d509d"/>
          <rect x="19.49" y="9.74" width="2.44" height="2.44" fill="#4d509d"/>
          <rect x="26.8" y="9.74" width="2.44" height="2.44" fill="#4d509d"/>
          <rect x="29.23" y="9.74" width="2.44" height="2.44" fill="#4d509d"/>
          <rect x="36.54" y="9.74" width="2.44" height="2.44" fill="#4d509d"/>
          <rect x="38.98" y="9.74" width="2.44" height="2.44" fill="#4d509d"/>
          <rect x="43.85" y="9.74" width="2.44" height="2.44" fill="#4d509d"/>
          <rect x="19.49" y="12.18" width="2.44" height="2.44" fill="#4d509d"/>
          <rect x="24.36" y="12.18" width="2.44" height="2.44" fill="#4d509d"/>
          <rect x="31.67" y="12.18" width="2.44" height="2.44" fill="#4d509d"/>
          <rect x="34.1" y="12.18" width="2.44" height="2.44" fill="#4d509d"/>
          <rect x="38.98" y="12.18" width="2.44" height="2.44" fill="#4d509d"/>
          <rect x="46.28" y="12.18" width="2.44" height="2.44" fill="#4d509d"/>
          <rect x="19.49" y="14.62" width="2.44" height="2.44" fill="#4d509d"/>
          <rect x="24.36" y="14.62" width="2.44" height="2.44" fill="#4d509d"/>
          <rect x="29.23" y="14.62" width="2.44" height="2.44" fill="#4d509d"/>
          <rect x="34.1" y="14.62" width="2.44" height="2.44" fill="#4d509d"/>
          <rect x="38.98" y="14.62" width="2.44" height="2.44" fill="#4d509d"/>
          <rect x="43.85" y="14.62" width="2.44" height="2.44" fill="#4d509d"/>
          <rect x="48.72" y="14.62" width="2.44" height="2.44" fill="#4d509d"/>
          <rect x="24.36" y="17.05" width="2.44" height="2.44" fill="#4d509d"/>
          <rect x="26.8" y="17.05" width="2.44" height="2.44" fill="#4d509d"/>
          <rect x="29.23" y="17.05" width="2.44" height="2.44" fill="#4d509d"/>
          <rect x="38.98" y="17.05" width="2.44" height="2.44" fill="#4d509d"/>
          <rect x="41.41" y="17.05" width="2.44" height="2.44" fill="#4d509d"/>
          <rect x="43.85" y="17.05" width="2.44" height="2.44" fill="#4d509d"/>
          <rect x="7.31" y="19.49" width="2.44" height="2.44" fill="#4d509d"/>
          <rect x="14.62" y="19.49" width="2.44" height="2.44" fill="#4d509d"/>
          <rect x="26.8" y="19.49" width="2.44" height="2.44" fill="#4d509d"/>
          <rect x="34.1" y="19.49" width="2.44" height="2.44" fill="#4d509d"/>
          <rect x="36.54" y="19.49" width="2.44" height="2.44" fill="#4d509d"/>
          <rect x="41.41" y="19.49" width="2.44" height="2.44" fill="#4d509d"/>
          <rect x="43.85" y="19.49" width="2.44" height="2.44" fill="#4d509d"/>
          <rect x="56.03" y="19.49" width="2.44" height="2.44" fill="#4d509d"/>
          <rect x="58.46" y="19.49" width="2.44" height="2.44" fill="#4d509d"/>
          <rect x="60.9" y="19.49" width="2.44" height="2.44" fill="#4d509d"/>
          <rect x="65.77" y="19.49" width="2.44" height="2.44" fill="#4d509d"/>
          <rect x="68.21" y="19.49" width="2.44" height="2.44" fill="#4d509d"/>
          <rect y="21.92" width="2.44" height="2.44" fill="#4d509d"/>
          <rect x="2.44" y="21.92" width="2.44" height="2.44" fill="#4d509d"/>
          <rect x="4.87" y="21.92" width="2.44" height="2.44" fill="#4d509d"/>
          <rect x="12.18" y="21.92" width="2.44" height="2.44" fill="#4d509d"/>
          <rect x="19.49" y="21.92" width="2.44" height="2.44" fill="#4d509d"/>
          <rect x="21.92" y="21.92" width="2.44" height="2.44" fill="#4d509d"/>
          <rect x="24.36" y="21.92" width="2.44" height="2.44" fill="#4d509d"/>
          <rect x="26.8" y="21.92" width="2.44" height="2.44" fill="#4d509d"/>
          <rect x="29.23" y="21.92" width="2.44" height="2.44" fill="#4d509d"/>
          <rect x="34.1" y="21.92" width="2.44" height="2.44" fill="#4d509d"/>
          <rect x="41.41" y="21.92" width="2.44" height="2.44" fill="#4d509d"/>
          <rect x="43.85" y="21.92" width="2.44" height="2.44" fill="#4d509d"/>
          <rect x="46.28" y="21.92" width="2.44" height="2.44" fill="#4d509d"/>
          <rect x="51.16" y="21.92" width="2.44" height="2.44" fill="#4d509d"/>
          <rect x="53.59" y="21.92" width="2.44" height="2.44" fill="#4d509d"/>
          <rect x="60.9" y="21.92" width="2.44" height="2.44" fill="#4d509d"/>
          <rect x="68.21" y="21.92" width="2.44" height="2.44" fill="#4d509d"/>
          <rect y="24.36" width="2.44" height="2.44" fill="#4d509d"/>
          <rect x="4.87" y="24.36" width="2.44" height="2.44" fill="#4d509d"/>
          <rect x="7.31" y="24.36" width="2.44" height="2.44" fill="#4d509d"/>
          <rect x="12.18" y="24.36" width="2.44" height="2.44" fill="#4d509d"/>
          <rect x="14.62" y="24.36" width="2.44" height="2.44" fill="#4d509d"/>
          <rect x="17.05" y="24.36" width="2.44" height="2.44" fill="#4d509d"/>
          <rect x="19.49" y="24.36" width="2.44" height="2.44" fill="#4d509d"/>
          <rect x="46.28" y="24.36" width="2.44" height="2.44" fill="#4d509d"/>
          <rect x="53.59" y="24.36" width="2.44" height="2.44" fill="#4d509d"/>
          <rect x="63.33" y="24.36" width="2.44" height="2.44" fill="#4d509d"/>
          <rect x="65.77" y="24.36" width="2.44" height="2.44" fill="#4d509d"/>
          <rect x="4.87" y="26.8" width="2.44" height="2.44" fill="#4d509d"/>
          <rect x="7.31" y="26.8" width="2.44" height="2.44" fill="#4d509d"/>
          <rect x="21.92" y="26.8" width="2.44" height="2.44" fill="#4d509d"/>
          <rect x="51.16" y="26.8" width="2.44" height="2.44" fill="#4d509d"/>
          <rect x="53.59" y="26.8" width="2.44" height="2.44" fill="#4d509d"/>
          <rect x="56.03" y="26.8" width="2.44" height="2.44" fill="#4d509d"/>
          <rect x="58.46" y="26.8" width="2.44" height="2.44" fill="#4d509d"/>
          <rect x="63.33" y="26.8" width="2.44" height="2.44" fill="#4d509d"/>
          <rect x="65.77" y="26.8" width="2.44" height="2.44" fill="#4d509d"/>
          <rect x="2.44" y="29.23" width="2.44" height="2.44" fill="#4d509d"/>
          <rect x="4.87" y="29.23" width="2.44" height="2.44" fill="#4d509d"/>
          <rect x="12.18" y="29.23" width="2.44" height="2.44" fill="#4d509d"/>
          <rect x="14.62" y="29.23" width="2.44" height="2.44" fill="#4d509d"/>
          <rect x="17.05" y="29.23" width="2.44" height="2.44" fill="#4d509d"/>
          <rect x="21.92" y="29.23" width="2.44" height="2.44" fill="#4d509d"/>
          <rect x="46.28" y="29.23" width="2.44" height="2.44" fill="#4d509d"/>
          <rect x="48.72" y="29.23" width="2.44" height="2.44" fill="#4d509d"/>
          <rect x="53.59" y="29.23" width="2.44" height="2.44" fill="#4d509d"/>
          <rect x="56.03" y="29.23" width="2.44" height="2.44" fill="#4d509d"/>
          <rect x="60.9" y="29.23" width="2.44" height="2.44" fill="#4d509d"/>
          <rect y="31.67" width="2.44" height="2.44" fill="#4d509d"/>
          <rect x="2.44" y="31.67" width="2.44" height="2.44" fill="#4d509d"/>
          <rect x="9.74" y="31.67" width="2.44" height="2.44" fill="#4d509d"/>
          <rect x="19.49" y="31.67" width="2.44" height="2.44" fill="#4d509d"/>
          <rect x="46.28" y="31.67" width="2.44" height="2.44" fill="#4d509d"/>
          <rect x="48.72" y="31.67" width="2.44" height="2.44" fill="#4d509d"/>
          <rect x="51.16" y="31.67" width="2.44" height="2.44" fill="#4d509d"/>
          <rect x="56.03" y="31.67" width="2.44" height="2.44" fill="#4d509d"/>
          <rect x="60.9" y="31.67" width="2.44" height="2.44" fill="#4d509d"/>
          <rect x="65.77" y="31.67" width="2.44" height="2.44" fill="#4d509d"/>
          <rect y="34.1" width="2.44" height="2.44" fill="#4d509d"/>
          <rect x="4.87" y="34.1" width="2.44" height="2.44" fill="#4d509d"/>
          <rect x="7.31" y="34.1" width="2.44" height="2.44" fill="#4d509d"/>
          <rect x="12.18" y="34.1" width="2.44" height="2.44" fill="#4d509d"/>
          <rect x="14.62" y="34.1" width="2.44" height="2.44" fill="#4d509d"/>
          <rect x="17.05" y="34.1" width="2.44" height="2.44" fill="#4d509d"/>
          <rect x="21.92" y="34.1" width="2.44" height="2.44" fill="#4d509d"/>
          <rect x="53.59" y="34.1" width="2.44" height="2.44" fill="#4d509d"/>
          <rect x="65.77" y="34.1" width="2.44" height="2.44" fill="#4d509d"/>
          <rect x="68.21" y="34.1" width="2.44" height="2.44" fill="#4d509d"/>
          <rect y="36.54" width="2.44" height="2.44" fill="#4d509d"/>
          <rect x="2.44" y="36.54" width="2.44" height="2.44" fill="#4d509d"/>
          <rect x="12.18" y="36.54" width="2.44" height="2.44" fill="#4d509d"/>
          <rect x="17.05" y="36.54" width="2.44" height="2.44" fill="#4d509d"/>
          <rect x="48.72" y="36.54" width="2.44" height="2.44" fill="#4d509d"/>
          <rect x="53.59" y="36.54" width="2.44" height="2.44" fill="#4d509d"/>
          <rect x="56.03" y="36.54" width="2.44" height="2.44" fill="#4d509d"/>
          <rect x="65.77" y="36.54" width="2.44" height="2.44" fill="#4d509d"/>
          <rect y="38.98" width="2.44" height="2.44" fill="#4d509d"/>
          <rect x="7.31" y="38.98" width="2.44" height="2.44" fill="#4d509d"/>
          <rect x="12.18" y="38.98" width="2.44" height="2.44" fill="#4d509d"/>
          <rect x="14.62" y="38.98" width="2.44" height="2.44" fill="#4d509d"/>
          <rect x="17.05" y="38.98" width="2.44" height="2.44" fill="#4d509d"/>
          <rect x="19.49" y="38.98" width="2.44" height="2.44" fill="#4d509d"/>
          <rect x="46.28" y="38.98" width="2.44" height="2.44" fill="#4d509d"/>
          <rect x="48.72" y="38.98" width="2.44" height="2.44" fill="#4d509d"/>
          <rect x="51.16" y="38.98" width="2.44" height="2.44" fill="#4d509d"/>
          <rect x="65.77" y="38.98" width="2.44" height="2.44" fill="#4d509d"/>
          <rect x="4.87" y="41.41" width="2.44" height="2.44" fill="#4d509d"/>
          <rect x="12.18" y="41.41" width="2.44" height="2.44" fill="#4d509d"/>
          <rect x="19.49" y="41.41" width="2.44" height="2.44" fill="#4d509d"/>
          <rect x="21.92" y="41.41" width="2.44" height="2.44" fill="#4d509d"/>
          <rect x="48.72" y="41.41" width="2.44" height="2.44" fill="#4d509d"/>
          <rect x="51.16" y="41.41" width="2.44" height="2.44" fill="#4d509d"/>
          <rect x="53.59" y="41.41" width="2.44" height="2.44" fill="#4d509d"/>
          <rect x="60.9" y="41.41" width="2.44" height="2.44" fill="#4d509d"/>
          <rect x="63.33" y="41.41" width="2.44" height="2.44" fill="#4d509d"/>
          <rect x="65.77" y="41.41" width="2.44" height="2.44" fill="#4d509d"/>
          <rect x="68.21" y="41.41" width="2.44" height="2.44" fill="#4d509d"/>
          <rect y="43.85" width="2.44" height="2.44" fill="#4d509d"/>
          <rect x="7.31" y="43.85" width="2.44" height="2.44" fill="#4d509d"/>
          <rect x="9.74" y="43.85" width="2.44" height="2.44" fill="#4d509d"/>
          <rect x="14.62" y="43.85" width="2.44" height="2.44" fill="#4d509d"/>
          <rect x="19.49" y="43.85" width="2.44" height="2.44" fill="#4d509d"/>
          <rect x="21.92" y="43.85" width="2.44" height="2.44" fill="#4d509d"/>
          <rect x="51.16" y="43.85" width="2.44" height="2.44" fill="#4d509d"/>
          <rect x="56.03" y="43.85" width="2.44" height="2.44" fill="#4d509d"/>
          <rect x="63.33" y="43.85" width="2.44" height="2.44" fill="#4d509d"/>
          <rect x="65.77" y="43.85" width="2.44" height="2.44" fill="#4d509d"/>
          <rect x="68.21" y="43.85" width="2.44" height="2.44" fill="#4d509d"/>
          <rect x="4.87" y="46.28" width="2.44" height="2.44" fill="#4d509d"/>
          <rect x="7.31" y="46.28" width="2.44" height="2.44" fill="#4d509d"/>
          <rect x="21.92" y="46.28" width="2.44" height="2.44" fill="#4d509d"/>
          <rect x="34.1" y="46.28" width="2.44" height="2.44" fill="#4d509d"/>
          <rect x="36.54" y="46.28" width="2.44" height="2.44" fill="#4d509d"/>
          <rect x="38.98" y="46.28" width="2.44" height="2.44" fill="#4d509d"/>
          <rect x="41.41" y="46.28" width="2.44" height="2.44" fill="#4d509d"/>
          <rect x="43.85" y="46.28" width="2.44" height="2.44" fill="#4d509d"/>
          <rect x="48.72" y="46.28" width="2.44" height="2.44" fill="#4d509d"/>
          <rect x="56.03" y="46.28" width="2.44" height="2.44" fill="#4d509d"/>
          <rect x="60.9" y="46.28" width="2.44" height="2.44" fill="#4d509d"/>
          <rect x="65.77" y="46.28" width="2.44" height="2.44" fill="#4d509d"/>
          <rect y="48.72" width="2.44" height="2.44" fill="#4d509d"/>
          <rect x="4.87" y="48.72" width="2.44" height="2.44" fill="#4d509d"/>
          <rect x="7.31" y="48.72" width="2.44" height="2.44" fill="#4d509d"/>
          <rect x="14.62" y="48.72" width="2.44" height="2.44" fill="#4d509d"/>
          <rect x="17.05" y="48.72" width="2.44" height="2.44" fill="#4d509d"/>
          <rect x="19.49" y="48.72" width="2.44" height="2.44" fill="#4d509d"/>
          <rect x="21.92" y="48.72" width="2.44" height="2.44" fill="#4d509d"/>
          <rect x="29.23" y="48.72" width="2.44" height="2.44" fill="#4d509d"/>
          <rect x="31.67" y="48.72" width="2.44" height="2.44" fill="#4d509d"/>
          <rect x="34.1" y="48.72" width="2.44" height="2.44" fill="#4d509d"/>
          <rect x="41.41" y="48.72" width="2.44" height="2.44" fill="#4d509d"/>
          <rect x="46.28" y="48.72" width="2.44" height="2.44" fill="#4d509d"/>
          <rect x="48.72" y="48.72" width="2.44" height="2.44" fill="#4d509d"/>
          <rect x="51.16" y="48.72" width="2.44" height="2.44" fill="#4d509d"/>
          <rect x="53.59" y="48.72" width="2.44" height="2.44" fill="#4d509d"/>
          <rect x="56.03" y="48.72" width="2.44" height="2.44" fill="#4d509d"/>
          <rect x="58.46" y="48.72" width="2.44" height="2.44" fill="#4d509d"/>
          <rect x="63.33" y="48.72" width="2.44" height="2.44" fill="#4d509d"/>
          <rect x="65.77" y="48.72" width="2.44" height="2.44" fill="#4d509d"/>
          <rect x="68.21" y="48.72" width="2.44" height="2.44" fill="#4d509d"/>
          <rect x="19.49" y="51.16" width="2.44" height="2.44" fill="#4d509d"/>
          <rect x="24.36" y="51.16" width="2.44" height="2.44" fill="#4d509d"/>
          <rect x="26.8" y="51.16" width="2.44" height="2.44" fill="#4d509d"/>
          <rect x="31.67" y="51.16" width="2.44" height="2.44" fill="#4d509d"/>
          <rect x="34.1" y="51.16" width="2.44" height="2.44" fill="#4d509d"/>
          <rect x="41.41" y="51.16" width="2.44" height="2.44" fill="#4d509d"/>
          <rect x="43.85" y="51.16" width="2.44" height="2.44" fill="#4d509d"/>
          <rect x="48.72" y="51.16" width="2.44" height="2.44" fill="#4d509d"/>
          <rect x="58.46" y="51.16" width="2.44" height="2.44" fill="#4d509d"/>
          <rect x="68.21" y="51.16" width="2.44" height="2.44" fill="#4d509d"/>
          <rect x="24.36" y="53.59" width="2.44" height="2.44" fill="#4d509d"/>
          <rect x="26.8" y="53.59" width="2.44" height="2.44" fill="#4d509d"/>
          <rect x="29.23" y="53.59" width="2.44" height="2.44" fill="#4d509d"/>
          <rect x="31.67" y="53.59" width="2.44" height="2.44" fill="#4d509d"/>
          <rect x="36.54" y="53.59" width="2.44" height="2.44" fill="#4d509d"/>
          <rect x="38.98" y="53.59" width="2.44" height="2.44" fill="#4d509d"/>
          <rect x="41.41" y="53.59" width="2.44" height="2.44" fill="#4d509d"/>
          <rect x="48.72" y="53.59" width="2.44" height="2.44" fill="#4d509d"/>
          <rect x="53.59" y="53.59" width="2.44" height="2.44" fill="#4d509d"/>
          <rect x="58.46" y="53.59" width="2.44" height="2.44" fill="#4d509d"/>
          <rect x="60.9" y="53.59" width="2.44" height="2.44" fill="#4d509d"/>
          <rect x="63.33" y="53.59" width="2.44" height="2.44" fill="#4d509d"/>
          <rect x="65.77" y="53.59" width="2.44" height="2.44" fill="#4d509d"/>
          <rect x="24.36" y="56.03" width="2.44" height="2.44" fill="#4d509d"/>
          <rect x="36.54" y="56.03" width="2.44" height="2.44" fill="#4d509d"/>
          <rect x="41.41" y="56.03" width="2.44" height="2.44" fill="#4d509d"/>
          <rect x="48.72" y="56.03" width="2.44" height="2.44" fill="#4d509d"/>
          <rect x="58.46" y="56.03" width="2.44" height="2.44" fill="#4d509d"/>
          <rect x="63.33" y="56.03" width="2.44" height="2.44" fill="#4d509d"/>
          <rect x="21.92" y="58.46" width="2.44" height="2.44" fill="#4d509d"/>
          <rect x="26.8" y="58.46" width="2.44" height="2.44" fill="#4d509d"/>
          <rect x="29.23" y="58.46" width="2.44" height="2.44" fill="#4d509d"/>
          <rect x="31.67" y="58.46" width="2.44" height="2.44" fill="#4d509d"/>
          <rect x="34.1" y="58.46" width="2.44" height="2.44" fill="#4d509d"/>
          <rect x="36.54" y="58.46" width="2.44" height="2.44" fill="#4d509d"/>
          <rect x="41.41" y="58.46" width="2.44" height="2.44" fill="#4d509d"/>
          <rect x="43.85" y="58.46" width="2.44" height="2.44" fill="#4d509d"/>
          <rect x="48.72" y="58.46" width="2.44" height="2.44" fill="#4d509d"/>
          <rect x="51.16" y="58.46" width="2.44" height="2.44" fill="#4d509d"/>
          <rect x="53.59" y="58.46" width="2.44" height="2.44" fill="#4d509d"/>
          <rect x="56.03" y="58.46" width="2.44" height="2.44" fill="#4d509d"/>
          <rect x="58.46" y="58.46" width="2.44" height="2.44" fill="#4d509d"/>
          <rect x="60.9" y="58.46" width="2.44" height="2.44" fill="#4d509d"/>
          <rect x="65.77" y="58.46" width="2.44" height="2.44" fill="#4d509d"/>
          <rect x="68.21" y="58.46" width="2.44" height="2.44" fill="#4d509d"/>
          <rect x="19.49" y="60.9" width="2.44" height="2.44" fill="#4d509d"/>
          <rect x="21.92" y="60.9" width="2.44" height="2.44" fill="#4d509d"/>
          <rect x="24.36" y="60.9" width="2.44" height="2.44" fill="#4d509d"/>
          <rect x="26.8" y="60.9" width="2.44" height="2.44" fill="#4d509d"/>
          <rect x="36.54" y="60.9" width="2.44" height="2.44" fill="#4d509d"/>
          <rect x="43.85" y="60.9" width="2.44" height="2.44" fill="#4d509d"/>
          <rect x="46.28" y="60.9" width="2.44" height="2.44" fill="#4d509d"/>
          <rect x="48.72" y="60.9" width="2.44" height="2.44" fill="#4d509d"/>
          <rect x="51.16" y="60.9" width="2.44" height="2.44" fill="#4d509d"/>
          <rect x="53.59" y="60.9" width="2.44" height="2.44" fill="#4d509d"/>
          <rect x="58.46" y="60.9" width="2.44" height="2.44" fill="#4d509d"/>
          <rect x="60.9" y="60.9" width="2.44" height="2.44" fill="#4d509d"/>
          <rect x="68.21" y="60.9" width="2.44" height="2.44" fill="#4d509d"/>
          <rect x="31.67" y="63.34" width="2.44" height="2.44" fill="#4d509d"/>
          <rect x="34.1" y="63.34" width="2.44" height="2.44" fill="#4d509d"/>
          <rect x="36.54" y="63.34" width="2.44" height="2.44" fill="#4d509d"/>
          <rect x="38.98" y="63.34" width="2.44" height="2.44" fill="#4d509d"/>
          <rect x="41.41" y="63.34" width="2.44" height="2.44" fill="#4d509d"/>
          <rect x="43.85" y="63.34" width="2.44" height="2.44" fill="#4d509d"/>
          <rect x="46.28" y="63.34" width="2.44" height="2.44" fill="#4d509d"/>
          <rect x="48.72" y="63.34" width="2.44" height="2.44" fill="#4d509d"/>
          <rect x="58.46" y="63.34" width="2.44" height="2.44" fill="#4d509d"/>
          <rect x="60.9" y="63.34" width="2.44" height="2.44" fill="#4d509d"/>
          <rect x="68.21" y="63.34" width="2.44" height="2.44" fill="#4d509d"/>
          <rect x="21.92" y="65.77" width="2.44" height="2.44" fill="#4d509d"/>
          <rect x="24.36" y="65.77" width="2.44" height="2.44" fill="#4d509d"/>
          <rect x="46.28" y="65.77" width="2.44" height="2.44" fill="#4d509d"/>
          <rect x="48.72" y="65.77" width="2.44" height="2.44" fill="#4d509d"/>
          <rect x="53.59" y="65.77" width="2.44" height="2.44" fill="#4d509d"/>
          <rect x="56.03" y="65.77" width="2.44" height="2.44" fill="#4d509d"/>
          <rect x="65.77" y="65.77" width="2.44" height="2.44" fill="#4d509d"/>
          <rect x="21.92" y="68.21" width="2.44" height="2.44" fill="#4d509d"/>
          <rect x="26.8" y="68.21" width="2.44" height="2.44" fill="#4d509d"/>
          <rect x="29.23" y="68.21" width="2.44" height="2.44" fill="#4d509d"/>
          <rect x="31.67" y="68.21" width="2.44" height="2.44" fill="#4d509d"/>
          <rect x="36.54" y="68.21" width="2.44" height="2.44" fill="#4d509d"/>
          <rect x="38.98" y="68.21" width="2.44" height="2.44" fill="#4d509d"/>
          <rect x="41.41" y="68.21" width="2.44" height="2.44" fill="#4d509d"/>
          <rect x="48.72" y="68.21" width="2.44" height="2.44" fill="#4d509d"/>
          <rect x="51.16" y="68.21" width="2.44" height="2.44" fill="#4d509d"/>
          <rect x="53.59" y="68.21" width="2.44" height="2.44" fill="#4d509d"/>
          <rect x="58.46" y="68.21" width="2.44" height="2.44" fill="#4d509d"/>
          <rect x="65.77" y="68.21" width="2.44" height="2.44" fill="#4d509d"/>
          <path d="M14.49,2.56H2.56V14.49H14.49Zm-2.31,9.62H4.87V4.87h7.31Z" fill="none"/>
          <path d="M14.49,17.05h2.56V0H0V17.05H14.49ZM2.56,2.56H14.49V14.49H2.56Z" fill="#4d509d"/>
          <path d="M56.15,14.49H68.09V2.56H56.15Zm2.31-9.62h7.31v7.31H58.46Z" fill="none"/>
          <path d="M68.09,0H53.59V17.05h17V0Zm0,14.49H56.15V2.56H68.09Z" fill="#4d509d"/>
          <path d="M2.56,68.09H14.49V56.15H2.56Zm2.31-9.63h7.31v7.31H4.87Z" fill="none"/>
          <path d="M2.56,53.59H0v17H17.05v-17H2.56Zm11.93,14.5H2.56V56.15H14.49Z" fill="#4d509d"/>
          <rect x="4.87" y="4.87" width="7.31" height="7.31" fill="#4d509d"/>
          <rect x="58.46" y="4.87" width="7.31" height="7.31" fill="#4d509d"/>
          <rect x="4.87" y="58.46" width="7.31" height="7.31" fill="#4d509d"/>
        </g>
        <g>
          <path d="M25.51,25.58V45.07H45V25.58Zm1.18,1.19h3a3,3,0,0,1-3,3Zm0,17.1v-3a3,3,0,0,1,3,3Zm8.56-3.68a5.91,5.91,0,0,1-4.16-1.72l-.71-.71-2.44-2.44,3.15-3.15a5.89,5.89,0,0,1,8.32,0l.71.72,2.44,2.43-3.15,3.15A5.89,5.89,0,0,1,35.25,40.19Zm8.6,3.68h-3a3,3,0,0,1,3-3Zm0-14.14h0a3,3,0,0,1-3-3h3Z" fill="#4d509d"/>
          <path d="M35.25,32.11a3.21,3.21,0,1,0,3.21,3.21A3.21,3.21,0,0,0,35.25,32.11Zm0,4.83a1.62,1.62,0,1,1,1.62-1.62A1.63,1.63,0,0,1,35.25,36.94Z" fill="#4d509d"/>
        </g>
      </g>
    </g>
  </g>
</svg>
