<?xml version="1.0" encoding="UTF-8"?>
<svg id="b" data-name="Capa 2" xmlns="http://www.w3.org/2000/svg" viewBox="0 0 70.65 70.65">
  <g id="c" data-name="Capa 1">
    <g id="d" data-name="Capa 2">
      <g id="e" data-name="Capa 1-2">
        <g>
          <path d="M25.58,25.58v19.49h19.49v-19.49h-19.49ZM26.76,26.77h3c0,1.66-1.34,3-3,3v-3ZM26.76,43.87v-3c1.66,0,3,1.34,3,3h-3ZM35.32,40.19c-1.56,0-3.05-.62-4.16-1.72l-.71-.71-2.44-2.44,3.15-3.15c2.3-2.29,6.02-2.29,8.32,0l.71.72,2.44,2.43-3.15,3.15c-1.1,1.1-2.6,1.72-4.16,1.72ZM43.92,43.87h-3c0-1.66,1.34-3,3-3v3ZM43.92,29.73h0c-1.66,0-3-1.34-3-3h3v3Z" fill="#4d509d" stroke-width="0"/>
          <path d="M35.32,32.11c-1.77,0-3.21,1.44-3.21,3.21,0,1.77,1.44,3.21,3.21,3.21,1.77,0,3.21-1.44,3.21-3.21h0c0-1.77-1.44-3.21-3.21-3.21ZM35.32,36.94c-.89,0-1.62-.73-1.62-1.62,0-.89.73-1.62,1.62-1.62.89,0,1.62.73,1.62,1.62h0c0,.89-.73,1.61-1.62,1.62Z" fill="#4d509d" stroke-width="0"/>
        </g>
      </g>
    </g>
    <g>
      <rect x="23.55" width="2.14" height="2.14" fill="#4d509d" stroke-width="0"/>
      <rect x="25.69" width="2.14" height="2.14" fill="#4d509d" stroke-width="0"/>
      <rect x="27.83" width="2.14" height="2.14" fill="#4d509d" stroke-width="0"/>
      <rect x="29.97" width="2.14" height="2.14" fill="#4d509d" stroke-width="0"/>
      <rect x="36.4" width="2.14" height="2.14" fill="#4d509d" stroke-width="0"/>
      <rect x="40.68" width="2.14" height="2.14" fill="#4d509d" stroke-width="0"/>
      <rect x="44.96" width="2.14" height="2.14" fill="#4d509d" stroke-width="0"/>
      <rect x="47.1" width="2.14" height="2.14" fill="#4d509d" stroke-width="0"/>
      <rect x="51.38" width="2.14" height="2.14" fill="#4d509d" stroke-width="0"/>
      <rect x="21.41" y="2.14" width="2.14" height="2.14" fill="#4d509d" stroke-width="0"/>
      <rect x="25.69" y="2.14" width="2.14" height="2.14" fill="#4d509d" stroke-width="0"/>
      <rect x="34.25" y="2.14" width="2.14" height="2.14" fill="#4d509d" stroke-width="0"/>
      <rect x="42.82" y="2.14" width="2.14" height="2.14" fill="#4d509d" stroke-width="0"/>
      <rect x="44.96" y="2.14" width="2.14" height="2.14" fill="#4d509d" stroke-width="0"/>
      <rect x="51.38" y="2.14" width="2.14" height="2.14" fill="#4d509d" stroke-width="0"/>
      <rect x="17.13" y="4.28" width="2.14" height="2.14" fill="#4d509d" stroke-width="0"/>
      <rect x="19.27" y="4.28" width="2.14" height="2.14" fill="#4d509d" stroke-width="0"/>
      <rect x="23.55" y="4.28" width="2.14" height="2.14" fill="#4d509d" stroke-width="0"/>
      <rect x="25.69" y="4.28" width="2.14" height="2.14" fill="#4d509d" stroke-width="0"/>
      <rect x="27.83" y="4.28" width="2.14" height="2.14" fill="#4d509d" stroke-width="0"/>
      <rect x="29.97" y="4.28" width="2.14" height="2.14" fill="#4d509d" stroke-width="0"/>
      <rect x="32.11" y="4.28" width="2.14" height="2.14" fill="#4d509d" stroke-width="0"/>
      <rect x="34.25" y="4.28" width="2.14" height="2.14" fill="#4d509d" stroke-width="0"/>
      <rect x="36.4" y="4.28" width="2.14" height="2.14" fill="#4d509d" stroke-width="0"/>
      <rect x="40.68" y="4.28" width="2.14" height="2.14" fill="#4d509d" stroke-width="0"/>
      <rect x="42.82" y="4.28" width="2.14" height="2.14" fill="#4d509d" stroke-width="0"/>
      <rect x="44.96" y="4.28" width="2.14" height="2.14" fill="#4d509d" stroke-width="0"/>
      <rect x="47.1" y="4.28" width="2.14" height="2.14" fill="#4d509d" stroke-width="0"/>
      <rect x="49.24" y="4.28" width="2.14" height="2.14" fill="#4d509d" stroke-width="0"/>
      <rect x="51.38" y="4.28" width="2.14" height="2.14" fill="#4d509d" stroke-width="0"/>
      <rect x="17.13" y="6.42" width="2.14" height="2.14" fill="#4d509d" stroke-width="0"/>
      <rect x="19.27" y="6.42" width="2.14" height="2.14" fill="#4d509d" stroke-width="0"/>
      <rect x="21.41" y="6.42" width="2.14" height="2.14" fill="#4d509d" stroke-width="0"/>
      <rect x="25.69" y="6.42" width="2.14" height="2.14" fill="#4d509d" stroke-width="0"/>
      <rect x="29.97" y="6.42" width="2.14" height="2.14" fill="#4d509d" stroke-width="0"/>
      <rect x="34.25" y="6.42" width="2.14" height="2.14" fill="#4d509d" stroke-width="0"/>
      <rect x="42.82" y="6.42" width="2.14" height="2.14" fill="#4d509d" stroke-width="0"/>
      <rect x="44.96" y="6.42" width="2.14" height="2.14" fill="#4d509d" stroke-width="0"/>
      <rect x="47.1" y="6.42" width="2.14" height="2.14" fill="#4d509d" stroke-width="0"/>
      <rect x="49.24" y="6.42" width="2.14" height="2.14" fill="#4d509d" stroke-width="0"/>
      <rect x="19.27" y="8.56" width="2.14" height="2.14" fill="#4d509d" stroke-width="0"/>
      <rect x="21.41" y="8.56" width="2.14" height="2.14" fill="#4d509d" stroke-width="0"/>
      <rect x="25.69" y="8.56" width="2.14" height="2.14" fill="#4d509d" stroke-width="0"/>
      <rect x="29.97" y="8.56" width="2.14" height="2.14" fill="#4d509d" stroke-width="0"/>
      <rect x="34.25" y="8.56" width="2.14" height="2.14" fill="#4d509d" stroke-width="0"/>
      <rect x="38.54" y="8.56" width="2.14" height="2.14" fill="#4d509d" stroke-width="0"/>
      <rect x="40.68" y="8.56" width="2.14" height="2.14" fill="#4d509d" stroke-width="0"/>
      <rect x="42.82" y="8.56" width="2.14" height="2.14" fill="#4d509d" stroke-width="0"/>
      <rect x="44.96" y="8.56" width="2.14" height="2.14" fill="#4d509d" stroke-width="0"/>
      <rect x="49.24" y="8.56" width="2.14" height="2.14" fill="#4d509d" stroke-width="0"/>
      <rect x="51.38" y="8.56" width="2.14" height="2.14" fill="#4d509d" stroke-width="0"/>
      <rect x="21.41" y="10.7" width="2.14" height="2.14" fill="#4d509d" stroke-width="0"/>
      <rect x="23.55" y="10.7" width="2.14" height="2.14" fill="#4d509d" stroke-width="0"/>
      <rect x="25.69" y="10.7" width="2.14" height="2.14" fill="#4d509d" stroke-width="0"/>
      <rect x="29.97" y="10.7" width="2.14" height="2.14" fill="#4d509d" stroke-width="0"/>
      <rect x="32.11" y="10.7" width="2.14" height="2.14" fill="#4d509d" stroke-width="0"/>
      <rect x="36.4" y="10.7" width="2.14" height="2.14" fill="#4d509d" stroke-width="0"/>
      <rect x="40.68" y="10.7" width="2.14" height="2.14" fill="#4d509d" stroke-width="0"/>
      <rect x="47.1" y="10.7" width="2.14" height="2.14" fill="#4d509d" stroke-width="0"/>
      <rect x="49.24" y="10.7" width="2.14" height="2.14" fill="#4d509d" stroke-width="0"/>
      <rect x="17.13" y="12.85" width="2.14" height="2.14" fill="#4d509d" stroke-width="0"/>
      <rect x="21.41" y="12.85" width="2.14" height="2.14" fill="#4d509d" stroke-width="0"/>
      <rect x="25.69" y="12.85" width="2.14" height="2.14" fill="#4d509d" stroke-width="0"/>
      <rect x="29.97" y="12.85" width="2.14" height="2.14" fill="#4d509d" stroke-width="0"/>
      <rect x="34.25" y="12.85" width="2.14" height="2.14" fill="#4d509d" stroke-width="0"/>
      <rect x="38.54" y="12.85" width="2.14" height="2.14" fill="#4d509d" stroke-width="0"/>
      <rect x="42.82" y="12.85" width="2.14" height="2.14" fill="#4d509d" stroke-width="0"/>
      <rect x="47.1" y="12.85" width="2.14" height="2.14" fill="#4d509d" stroke-width="0"/>
      <rect x="51.38" y="12.85" width="2.14" height="2.14" fill="#4d509d" stroke-width="0"/>
      <rect x="19.27" y="14.99" width="2.14" height="2.14" fill="#4d509d" stroke-width="0"/>
      <rect x="23.55" y="14.99" width="2.14" height="2.14" fill="#4d509d" stroke-width="0"/>
      <rect x="27.83" y="14.99" width="2.14" height="2.14" fill="#4d509d" stroke-width="0"/>
      <rect x="40.68" y="14.99" width="2.14" height="2.14" fill="#4d509d" stroke-width="0"/>
      <rect x="42.82" y="14.99" width="2.14" height="2.14" fill="#4d509d" stroke-width="0"/>
      <rect x="47.1" y="14.99" width="2.14" height="2.14" fill="#4d509d" stroke-width="0"/>
      <rect x="51.38" y="14.99" width="2.14" height="2.14" fill="#4d509d" stroke-width="0"/>
      <rect x="6.42" y="17.13" width="2.14" height="2.14" fill="#4d509d" stroke-width="0"/>
      <rect x="8.56" y="17.13" width="2.14" height="2.14" fill="#4d509d" stroke-width="0"/>
      <rect x="12.85" y="17.13" width="2.14" height="2.14" fill="#4d509d" stroke-width="0"/>
      <rect x="14.99" y="17.13" width="2.14" height="2.14" fill="#4d509d" stroke-width="0"/>
      <rect x="21.41" y="17.13" width="2.14" height="2.14" fill="#4d509d" stroke-width="0"/>
      <rect x="29.97" y="17.13" width="2.14" height="2.14" fill="#4d509d" stroke-width="0"/>
      <rect x="36.4" y="17.13" width="2.14" height="2.14" fill="#4d509d" stroke-width="0"/>
      <rect x="38.54" y="17.13" width="2.14" height="2.14" fill="#4d509d" stroke-width="0"/>
      <rect x="40.68" y="17.13" width="2.14" height="2.14" fill="#4d509d" stroke-width="0"/>
      <rect x="51.38" y="17.13" width="2.14" height="2.14" fill="#4d509d" stroke-width="0"/>
      <rect x="62.09" y="17.13" width="2.14" height="2.14" fill="#4d509d" stroke-width="0"/>
      <rect x="64.23" y="17.13" width="2.14" height="2.14" fill="#4d509d" stroke-width="0"/>
      <rect x="10.7" y="19.27" width="2.14" height="2.14" fill="#4d509d" stroke-width="0"/>
      <rect x="17.13" y="19.27" width="2.14" height="2.14" fill="#4d509d" stroke-width="0"/>
      <rect x="19.27" y="19.27" width="2.14" height="2.14" fill="#4d509d" stroke-width="0"/>
      <rect x="21.41" y="19.27" width="2.14" height="2.14" fill="#4d509d" stroke-width="0"/>
      <rect x="27.83" y="19.27" width="2.14" height="2.14" fill="#4d509d" stroke-width="0"/>
      <rect x="29.97" y="19.27" width="2.14" height="2.14" fill="#4d509d" stroke-width="0"/>
      <rect x="32.11" y="19.27" width="2.14" height="2.14" fill="#4d509d" stroke-width="0"/>
      <rect x="34.25" y="19.27" width="2.14" height="2.14" fill="#4d509d" stroke-width="0"/>
      <rect x="36.4" y="19.27" width="2.14" height="2.14" fill="#4d509d" stroke-width="0"/>
      <rect x="44.96" y="19.27" width="2.14" height="2.14" fill="#4d509d" stroke-width="0"/>
      <rect x="49.24" y="19.27" width="2.14" height="2.14" fill="#4d509d" stroke-width="0"/>
      <rect x="53.52" y="19.27" width="2.14" height="2.14" fill="#4d509d" stroke-width="0"/>
      <rect x="57.8" y="19.27" width="2.14" height="2.14" fill="#4d509d" stroke-width="0"/>
      <rect x="59.94" y="19.27" width="2.14" height="2.14" fill="#4d509d" stroke-width="0"/>
      <rect x="62.09" y="19.27" width="2.14" height="2.14" fill="#4d509d" stroke-width="0"/>
      <rect x="64.23" y="19.27" width="2.14" height="2.14" fill="#4d509d" stroke-width="0"/>
      <rect y="21.41" width="2.14" height="2.14" fill="#4d509d" stroke-width="0"/>
      <rect x="4.28" y="21.41" width="2.14" height="2.14" fill="#4d509d" stroke-width="0"/>
      <rect x="6.42" y="21.41" width="2.14" height="2.14" fill="#4d509d" stroke-width="0"/>
      <rect x="10.7" y="21.41" width="2.14" height="2.14" fill="#4d509d" stroke-width="0"/>
      <rect x="12.85" y="21.41" width="2.14" height="2.14" fill="#4d509d" stroke-width="0"/>
      <rect x="14.99" y="21.41" width="2.14" height="2.14" fill="#4d509d" stroke-width="0"/>
      <rect x="19.27" y="21.41" width="2.14" height="2.14" fill="#4d509d" stroke-width="0"/>
      <rect x="21.41" y="21.41" width="2.14" height="2.14" fill="#4d509d" stroke-width="0"/>
      <rect x="23.55" y="21.41" width="2.14" height="2.14" fill="#4d509d" stroke-width="0"/>
      <rect x="36.4" y="21.41" width="2.14" height="2.14" fill="#4d509d" stroke-width="0"/>
      <rect x="40.68" y="21.41" width="2.14" height="2.14" fill="#4d509d" stroke-width="0"/>
      <rect x="42.82" y="21.41" width="2.14" height="2.14" fill="#4d509d" stroke-width="0"/>
      <rect x="47.1" y="21.41" width="2.14" height="2.14" fill="#4d509d" stroke-width="0"/>
      <rect x="49.24" y="21.41" width="2.14" height="2.14" fill="#4d509d" stroke-width="0"/>
      <rect x="51.38" y="21.41" width="2.14" height="2.14" fill="#4d509d" stroke-width="0"/>
      <rect x="53.52" y="21.41" width="2.14" height="2.14" fill="#4d509d" stroke-width="0"/>
      <rect x="55.66" y="21.41" width="2.14" height="2.14" fill="#4d509d" stroke-width="0"/>
      <rect x="57.8" y="21.41" width="2.14" height="2.14" fill="#4d509d" stroke-width="0"/>
      <rect x="64.23" y="21.41" width="2.14" height="2.14" fill="#4d509d" stroke-width="0"/>
      <rect x="66.37" y="21.41" width="2.14" height="2.14" fill="#4d509d" stroke-width="0"/>
      <rect x="68.51" y="21.41" width="2.14" height="2.14" fill="#4d509d" stroke-width="0"/>
      <rect y="23.55" width="2.14" height="2.14" fill="#4d509d" stroke-width="0"/>
      <rect x="8.56" y="23.55" width="2.14" height="2.14" fill="#4d509d" stroke-width="0"/>
      <rect x="10.7" y="23.55" width="2.14" height="2.14" fill="#4d509d" stroke-width="0"/>
      <rect x="14.99" y="23.55" width="2.14" height="2.14" fill="#4d509d" stroke-width="0"/>
      <rect x="47.1" y="23.55" width="2.14" height="2.14" fill="#4d509d" stroke-width="0"/>
      <rect x="53.52" y="23.55" width="2.14" height="2.14" fill="#4d509d" stroke-width="0"/>
      <rect x="57.8" y="23.55" width="2.14" height="2.14" fill="#4d509d" stroke-width="0"/>
      <rect x="59.94" y="23.55" width="2.14" height="2.14" fill="#4d509d" stroke-width="0"/>
      <rect x="64.23" y="23.55" width="2.14" height="2.14" fill="#4d509d" stroke-width="0"/>
      <rect x="4.28" y="25.69" width="2.14" height="2.14" fill="#4d509d" stroke-width="0"/>
      <rect x="8.56" y="25.69" width="2.14" height="2.14" fill="#4d509d" stroke-width="0"/>
      <rect x="10.7" y="25.69" width="2.14" height="2.14" fill="#4d509d" stroke-width="0"/>
      <rect x="12.85" y="25.69" width="2.14" height="2.14" fill="#4d509d" stroke-width="0"/>
      <rect x="55.66" y="25.69" width="2.14" height="2.14" fill="#4d509d" stroke-width="0"/>
      <rect x="57.8" y="25.69" width="2.14" height="2.14" fill="#4d509d" stroke-width="0"/>
      <rect x="59.94" y="25.69" width="2.14" height="2.14" fill="#4d509d" stroke-width="0"/>
      <rect x="68.51" y="25.69" width="2.14" height="2.14" fill="#4d509d" stroke-width="0"/>
      <rect y="27.83" width="2.14" height="2.14" fill="#4d509d" stroke-width="0"/>
      <rect x="4.28" y="27.83" width="2.14" height="2.14" fill="#4d509d" stroke-width="0"/>
      <rect x="21.41" y="27.83" width="2.14" height="2.14" fill="#4d509d" stroke-width="0"/>
      <rect x="49.24" y="27.83" width="2.14" height="2.14" fill="#4d509d" stroke-width="0"/>
      <rect x="51.38" y="27.83" width="2.14" height="2.14" fill="#4d509d" stroke-width="0"/>
      <rect x="57.8" y="27.83" width="2.14" height="2.14" fill="#4d509d" stroke-width="0"/>
      <rect x="59.94" y="27.83" width="2.14" height="2.14" fill="#4d509d" stroke-width="0"/>
      <rect x="62.09" y="27.83" width="2.14" height="2.14" fill="#4d509d" stroke-width="0"/>
      <rect x="66.37" y="27.83" width="2.14" height="2.14" fill="#4d509d" stroke-width="0"/>
      <rect y="29.97" width="2.14" height="2.14" fill="#4d509d" stroke-width="0"/>
      <rect x="2.14" y="29.97" width="2.14" height="2.14" fill="#4d509d" stroke-width="0"/>
      <rect x="8.56" y="29.97" width="2.14" height="2.14" fill="#4d509d" stroke-width="0"/>
      <rect x="12.85" y="29.97" width="2.14" height="2.14" fill="#4d509d" stroke-width="0"/>
      <rect x="14.99" y="29.97" width="2.14" height="2.14" fill="#4d509d" stroke-width="0"/>
      <rect x="17.13" y="29.97" width="2.14" height="2.14" fill="#4d509d" stroke-width="0"/>
      <rect x="19.27" y="29.97" width="2.14" height="2.14" fill="#4d509d" stroke-width="0"/>
      <rect x="21.41" y="29.97" width="2.14" height="2.14" fill="#4d509d" stroke-width="0"/>
      <rect x="51.38" y="29.97" width="2.14" height="2.14" fill="#4d509d" stroke-width="0"/>
      <rect x="57.8" y="29.97" width="2.14" height="2.14" fill="#4d509d" stroke-width="0"/>
      <rect x="6.42" y="32.11" width="2.14" height="2.14" fill="#4d509d" stroke-width="0"/>
      <rect x="14.99" y="32.11" width="2.14" height="2.14" fill="#4d509d" stroke-width="0"/>
      <rect x="49.24" y="32.11" width="2.14" height="2.14" fill="#4d509d" stroke-width="0"/>
      <rect x="51.38" y="32.11" width="2.14" height="2.14" fill="#4d509d" stroke-width="0"/>
      <rect x="53.52" y="32.11" width="2.14" height="2.14" fill="#4d509d" stroke-width="0"/>
      <rect x="55.66" y="32.11" width="2.14" height="2.14" fill="#4d509d" stroke-width="0"/>
      <rect x="57.8" y="32.11" width="2.14" height="2.14" fill="#4d509d" stroke-width="0"/>
      <rect x="62.09" y="32.11" width="2.14" height="2.14" fill="#4d509d" stroke-width="0"/>
      <rect x="2.14" y="34.25" width="2.14" height="2.14" fill="#4d509d" stroke-width="0"/>
      <rect x="6.42" y="34.25" width="2.14" height="2.14" fill="#4d509d" stroke-width="0"/>
      <rect x="8.56" y="34.25" width="2.14" height="2.14" fill="#4d509d" stroke-width="0"/>
      <rect x="10.7" y="34.25" width="2.14" height="2.14" fill="#4d509d" stroke-width="0"/>
      <rect x="12.85" y="34.25" width="2.14" height="2.14" fill="#4d509d" stroke-width="0"/>
      <rect x="14.99" y="34.25" width="2.14" height="2.14" fill="#4d509d" stroke-width="0"/>
      <rect x="19.27" y="34.25" width="2.14" height="2.14" fill="#4d509d" stroke-width="0"/>
      <rect x="49.24" y="34.25" width="2.14" height="2.14" fill="#4d509d" stroke-width="0"/>
      <rect x="53.52" y="34.25" width="2.14" height="2.14" fill="#4d509d" stroke-width="0"/>
      <rect x="55.66" y="34.25" width="2.14" height="2.14" fill="#4d509d" stroke-width="0"/>
      <rect x="57.8" y="34.25" width="2.14" height="2.14" fill="#4d509d" stroke-width="0"/>
      <rect x="59.94" y="34.25" width="2.14" height="2.14" fill="#4d509d" stroke-width="0"/>
      <rect x="62.09" y="34.25" width="2.14" height="2.14" fill="#4d509d" stroke-width="0"/>
      <rect x="64.23" y="34.25" width="2.14" height="2.14" fill="#4d509d" stroke-width="0"/>
      <rect y="36.4" width="2.14" height="2.14" fill="#4d509d" stroke-width="0"/>
      <rect x="2.14" y="36.4" width="2.14" height="2.14" fill="#4d509d" stroke-width="0"/>
      <rect x="4.28" y="36.4" width="2.14" height="2.14" fill="#4d509d" stroke-width="0"/>
      <rect x="6.42" y="36.4" width="2.14" height="2.14" fill="#4d509d" stroke-width="0"/>
      <rect x="10.7" y="36.4" width="2.14" height="2.14" fill="#4d509d" stroke-width="0"/>
      <rect x="14.99" y="36.4" width="2.14" height="2.14" fill="#4d509d" stroke-width="0"/>
      <rect x="17.13" y="36.4" width="2.14" height="2.14" fill="#4d509d" stroke-width="0"/>
      <rect x="47.1" y="36.4" width="2.14" height="2.14" fill="#4d509d" stroke-width="0"/>
      <rect x="51.38" y="36.4" width="2.14" height="2.14" fill="#4d509d" stroke-width="0"/>
      <rect x="55.66" y="36.4" width="2.14" height="2.14" fill="#4d509d" stroke-width="0"/>
      <rect x="57.8" y="36.4" width="2.14" height="2.14" fill="#4d509d" stroke-width="0"/>
      <rect x="59.94" y="36.4" width="2.14" height="2.14" fill="#4d509d" stroke-width="0"/>
      <rect x="62.09" y="36.4" width="2.14" height="2.14" fill="#4d509d" stroke-width="0"/>
      <rect y="38.54" width="2.14" height="2.14" fill="#4d509d" stroke-width="0"/>
      <rect x="4.28" y="38.54" width="2.14" height="2.14" fill="#4d509d" stroke-width="0"/>
      <rect x="8.56" y="38.54" width="2.14" height="2.14" fill="#4d509d" stroke-width="0"/>
      <rect x="12.85" y="38.54" width="2.14" height="2.14" fill="#4d509d" stroke-width="0"/>
      <rect x="14.99" y="38.54" width="2.14" height="2.14" fill="#4d509d" stroke-width="0"/>
      <rect x="19.27" y="38.54" width="2.14" height="2.14" fill="#4d509d" stroke-width="0"/>
      <rect x="49.24" y="38.54" width="2.14" height="2.14" fill="#4d509d" stroke-width="0"/>
      <rect x="53.52" y="38.54" width="2.14" height="2.14" fill="#4d509d" stroke-width="0"/>
      <rect x="55.66" y="38.54" width="2.14" height="2.14" fill="#4d509d" stroke-width="0"/>
      <rect x="62.09" y="38.54" width="2.14" height="2.14" fill="#4d509d" stroke-width="0"/>
      <rect x="64.23" y="38.54" width="2.14" height="2.14" fill="#4d509d" stroke-width="0"/>
      <rect x="66.37" y="38.54" width="2.14" height="2.14" fill="#4d509d" stroke-width="0"/>
      <rect x="68.51" y="38.54" width="2.14" height="2.14" fill="#4d509d" stroke-width="0"/>
      <rect y="40.68" width="2.14" height="2.14" fill="#4d509d" stroke-width="0"/>
      <rect x="2.14" y="40.68" width="2.14" height="2.14" fill="#4d509d" stroke-width="0"/>
      <rect x="4.28" y="40.68" width="2.14" height="2.14" fill="#4d509d" stroke-width="0"/>
      <rect x="6.42" y="40.68" width="2.14" height="2.14" fill="#4d509d" stroke-width="0"/>
      <rect x="8.56" y="40.68" width="2.14" height="2.14" fill="#4d509d" stroke-width="0"/>
      <rect x="19.27" y="40.68" width="2.14" height="2.14" fill="#4d509d" stroke-width="0"/>
      <rect x="49.24" y="40.68" width="2.14" height="2.14" fill="#4d509d" stroke-width="0"/>
      <rect x="51.38" y="40.68" width="2.14" height="2.14" fill="#4d509d" stroke-width="0"/>
      <rect x="55.66" y="40.68" width="2.14" height="2.14" fill="#4d509d" stroke-width="0"/>
      <rect x="62.09" y="40.68" width="2.14" height="2.14" fill="#4d509d" stroke-width="0"/>
      <rect x="64.23" y="40.68" width="2.14" height="2.14" fill="#4d509d" stroke-width="0"/>
      <rect x="66.37" y="40.68" width="2.14" height="2.14" fill="#4d509d" stroke-width="0"/>
      <rect x="68.51" y="40.68" width="2.14" height="2.14" fill="#4d509d" stroke-width="0"/>
      <rect x="4.28" y="42.82" width="2.14" height="2.14" fill="#4d509d" stroke-width="0"/>
      <rect x="6.42" y="42.82" width="2.14" height="2.14" fill="#4d509d" stroke-width="0"/>
      <rect x="8.56" y="42.82" width="2.14" height="2.14" fill="#4d509d" stroke-width="0"/>
      <rect x="12.85" y="42.82" width="2.14" height="2.14" fill="#4d509d" stroke-width="0"/>
      <rect x="14.99" y="42.82" width="2.14" height="2.14" fill="#4d509d" stroke-width="0"/>
      <rect x="19.27" y="42.82" width="2.14" height="2.14" fill="#4d509d" stroke-width="0"/>
      <rect x="21.41" y="42.82" width="2.14" height="2.14" fill="#4d509d" stroke-width="0"/>
      <rect x="51.38" y="42.82" width="2.14" height="2.14" fill="#4d509d" stroke-width="0"/>
      <rect x="53.52" y="42.82" width="2.14" height="2.14" fill="#4d509d" stroke-width="0"/>
      <rect x="57.8" y="42.82" width="2.14" height="2.14" fill="#4d509d" stroke-width="0"/>
      <rect x="62.09" y="42.82" width="2.14" height="2.14" fill="#4d509d" stroke-width="0"/>
      <rect x="66.37" y="42.82" width="2.14" height="2.14" fill="#4d509d" stroke-width="0"/>
      <rect y="44.96" width="2.14" height="2.14" fill="#4d509d" stroke-width="0"/>
      <rect x="2.14" y="44.96" width="2.14" height="2.14" fill="#4d509d" stroke-width="0"/>
      <rect x="6.42" y="44.96" width="2.14" height="2.14" fill="#4d509d" stroke-width="0"/>
      <rect x="8.56" y="44.96" width="2.14" height="2.14" fill="#4d509d" stroke-width="0"/>
      <rect x="14.99" y="44.96" width="2.14" height="2.14" fill="#4d509d" stroke-width="0"/>
      <rect x="19.27" y="44.96" width="2.14" height="2.14" fill="#4d509d" stroke-width="0"/>
      <rect x="53.52" y="44.96" width="2.14" height="2.14" fill="#4d509d" stroke-width="0"/>
      <rect x="55.66" y="44.96" width="2.14" height="2.14" fill="#4d509d" stroke-width="0"/>
      <rect x="57.8" y="44.96" width="2.14" height="2.14" fill="#4d509d" stroke-width="0"/>
      <rect x="59.94" y="44.96" width="2.14" height="2.14" fill="#4d509d" stroke-width="0"/>
      <rect x="64.23" y="44.96" width="2.14" height="2.14" fill="#4d509d" stroke-width="0"/>
      <rect y="47.1" width="2.14" height="2.14" fill="#4d509d" stroke-width="0"/>
      <rect x="4.28" y="47.1" width="2.14" height="2.14" fill="#4d509d" stroke-width="0"/>
      <rect x="6.42" y="47.1" width="2.14" height="2.14" fill="#4d509d" stroke-width="0"/>
      <rect x="8.56" y="47.1" width="2.14" height="2.14" fill="#4d509d" stroke-width="0"/>
      <rect x="10.7" y="47.1" width="2.14" height="2.14" fill="#4d509d" stroke-width="0"/>
      <rect x="12.85" y="47.1" width="2.14" height="2.14" fill="#4d509d" stroke-width="0"/>
      <rect x="17.13" y="47.1" width="2.14" height="2.14" fill="#4d509d" stroke-width="0"/>
      <rect x="19.27" y="47.1" width="2.14" height="2.14" fill="#4d509d" stroke-width="0"/>
      <rect x="21.41" y="47.1" width="2.14" height="2.14" fill="#4d509d" stroke-width="0"/>
      <rect x="25.69" y="47.1" width="2.14" height="2.14" fill="#4d509d" stroke-width="0"/>
      <rect x="32.11" y="47.1" width="2.14" height="2.14" fill="#4d509d" stroke-width="0"/>
      <rect x="34.25" y="47.1" width="2.14" height="2.14" fill="#4d509d" stroke-width="0"/>
      <rect x="36.4" y="47.1" width="2.14" height="2.14" fill="#4d509d" stroke-width="0"/>
      <rect x="38.54" y="47.1" width="2.14" height="2.14" fill="#4d509d" stroke-width="0"/>
      <rect x="40.68" y="47.1" width="2.14" height="2.14" fill="#4d509d" stroke-width="0"/>
      <rect x="42.82" y="47.1" width="2.14" height="2.14" fill="#4d509d" stroke-width="0"/>
      <rect x="44.96" y="47.1" width="2.14" height="2.14" fill="#4d509d" stroke-width="0"/>
      <rect x="51.38" y="47.1" width="2.14" height="2.14" fill="#4d509d" stroke-width="0"/>
      <rect x="55.66" y="47.1" width="2.14" height="2.14" fill="#4d509d" stroke-width="0"/>
      <rect x="57.8" y="47.1" width="2.14" height="2.14" fill="#4d509d" stroke-width="0"/>
      <rect x="64.23" y="47.1" width="2.14" height="2.14" fill="#4d509d" stroke-width="0"/>
      <rect x="66.37" y="47.1" width="2.14" height="2.14" fill="#4d509d" stroke-width="0"/>
      <rect x="68.51" y="47.1" width="2.14" height="2.14" fill="#4d509d" stroke-width="0"/>
      <rect y="49.24" width="2.14" height="2.14" fill="#4d509d" stroke-width="0"/>
      <rect x="4.28" y="49.24" width="2.14" height="2.14" fill="#4d509d" stroke-width="0"/>
      <rect x="10.7" y="49.24" width="2.14" height="2.14" fill="#4d509d" stroke-width="0"/>
      <rect x="14.99" y="49.24" width="2.14" height="2.14" fill="#4d509d" stroke-width="0"/>
      <rect x="17.13" y="49.24" width="2.14" height="2.14" fill="#4d509d" stroke-width="0"/>
      <rect x="21.41" y="49.24" width="2.14" height="2.14" fill="#4d509d" stroke-width="0"/>
      <rect x="27.83" y="49.24" width="2.14" height="2.14" fill="#4d509d" stroke-width="0"/>
      <rect x="32.11" y="49.24" width="2.14" height="2.14" fill="#4d509d" stroke-width="0"/>
      <rect x="36.4" y="49.24" width="2.14" height="2.14" fill="#4d509d" stroke-width="0"/>
      <rect x="42.82" y="49.24" width="2.14" height="2.14" fill="#4d509d" stroke-width="0"/>
      <rect x="47.1" y="49.24" width="2.14" height="2.14" fill="#4d509d" stroke-width="0"/>
      <rect x="59.94" y="49.24" width="2.14" height="2.14" fill="#4d509d" stroke-width="0"/>
      <rect x="64.23" y="49.24" width="2.14" height="2.14" fill="#4d509d" stroke-width="0"/>
      <rect x="68.51" y="49.24" width="2.14" height="2.14" fill="#4d509d" stroke-width="0"/>
      <rect y="51.38" width="2.14" height="2.14" fill="#4d509d" stroke-width="0"/>
      <rect x="2.14" y="51.38" width="2.14" height="2.14" fill="#4d509d" stroke-width="0"/>
      <rect x="4.28" y="51.38" width="2.14" height="2.14" fill="#4d509d" stroke-width="0"/>
      <rect x="12.85" y="51.38" width="2.14" height="2.14" fill="#4d509d" stroke-width="0"/>
      <rect x="19.27" y="51.38" width="2.14" height="2.14" fill="#4d509d" stroke-width="0"/>
      <rect x="23.55" y="51.38" width="2.14" height="2.14" fill="#4d509d" stroke-width="0"/>
      <rect x="34.25" y="51.38" width="2.14" height="2.14" fill="#4d509d" stroke-width="0"/>
      <rect x="51.38" y="51.38" width="2.14" height="2.14" fill="#4d509d" stroke-width="0"/>
      <rect x="53.52" y="51.38" width="2.14" height="2.14" fill="#4d509d" stroke-width="0"/>
      <rect x="55.66" y="51.38" width="2.14" height="2.14" fill="#4d509d" stroke-width="0"/>
      <rect x="57.8" y="51.38" width="2.14" height="2.14" fill="#4d509d" stroke-width="0"/>
      <rect x="59.94" y="51.38" width="2.14" height="2.14" fill="#4d509d" stroke-width="0"/>
      <rect x="68.51" y="51.38" width="2.14" height="2.14" fill="#4d509d" stroke-width="0"/>
      <rect x="17.13" y="53.52" width="2.14" height="2.14" fill="#4d509d" stroke-width="0"/>
      <rect x="19.27" y="53.52" width="2.14" height="2.14" fill="#4d509d" stroke-width="0"/>
      <rect x="23.55" y="53.52" width="2.14" height="2.14" fill="#4d509d" stroke-width="0"/>
      <rect x="25.69" y="53.52" width="2.14" height="2.14" fill="#4d509d" stroke-width="0"/>
      <rect x="34.25" y="53.52" width="2.14" height="2.14" fill="#4d509d" stroke-width="0"/>
      <rect x="36.4" y="53.52" width="2.14" height="2.14" fill="#4d509d" stroke-width="0"/>
      <rect x="40.68" y="53.52" width="2.14" height="2.14" fill="#4d509d" stroke-width="0"/>
      <rect x="42.82" y="53.52" width="2.14" height="2.14" fill="#4d509d" stroke-width="0"/>
      <rect x="47.1" y="53.52" width="2.14" height="2.14" fill="#4d509d" stroke-width="0"/>
      <rect x="51.38" y="53.52" width="2.14" height="2.14" fill="#4d509d" stroke-width="0"/>
      <rect x="59.94" y="53.52" width="2.14" height="2.14" fill="#4d509d" stroke-width="0"/>
      <rect x="64.23" y="53.52" width="2.14" height="2.14" fill="#4d509d" stroke-width="0"/>
      <rect x="17.13" y="55.66" width="2.14" height="2.14" fill="#4d509d" stroke-width="0"/>
      <rect x="19.27" y="55.66" width="2.14" height="2.14" fill="#4d509d" stroke-width="0"/>
      <rect x="25.69" y="55.66" width="2.14" height="2.14" fill="#4d509d" stroke-width="0"/>
      <rect x="27.83" y="55.66" width="2.14" height="2.14" fill="#4d509d" stroke-width="0"/>
      <rect x="36.4" y="55.66" width="2.14" height="2.14" fill="#4d509d" stroke-width="0"/>
      <rect x="38.54" y="55.66" width="2.14" height="2.14" fill="#4d509d" stroke-width="0"/>
      <rect x="42.82" y="55.66" width="2.14" height="2.14" fill="#4d509d" stroke-width="0"/>
      <rect x="44.96" y="55.66" width="2.14" height="2.14" fill="#4d509d" stroke-width="0"/>
      <rect x="47.1" y="55.66" width="2.14" height="2.14" fill="#4d509d" stroke-width="0"/>
      <rect x="49.24" y="55.66" width="2.14" height="2.14" fill="#4d509d" stroke-width="0"/>
      <rect x="51.38" y="55.66" width="2.14" height="2.14" fill="#4d509d" stroke-width="0"/>
      <rect x="55.66" y="55.66" width="2.14" height="2.14" fill="#4d509d" stroke-width="0"/>
      <rect x="59.94" y="55.66" width="2.14" height="2.14" fill="#4d509d" stroke-width="0"/>
      <rect x="19.27" y="57.8" width="2.14" height="2.14" fill="#4d509d" stroke-width="0"/>
      <rect x="23.55" y="57.8" width="2.14" height="2.14" fill="#4d509d" stroke-width="0"/>
      <rect x="29.97" y="57.8" width="2.14" height="2.14" fill="#4d509d" stroke-width="0"/>
      <rect x="32.11" y="57.8" width="2.14" height="2.14" fill="#4d509d" stroke-width="0"/>
      <rect x="34.25" y="57.8" width="2.14" height="2.14" fill="#4d509d" stroke-width="0"/>
      <rect x="36.4" y="57.8" width="2.14" height="2.14" fill="#4d509d" stroke-width="0"/>
      <rect x="42.82" y="57.8" width="2.14" height="2.14" fill="#4d509d" stroke-width="0"/>
      <rect x="51.38" y="57.8" width="2.14" height="2.14" fill="#4d509d" stroke-width="0"/>
      <rect x="59.94" y="57.8" width="2.14" height="2.14" fill="#4d509d" stroke-width="0"/>
      <rect x="62.09" y="57.8" width="2.14" height="2.14" fill="#4d509d" stroke-width="0"/>
      <rect x="64.23" y="57.8" width="2.14" height="2.14" fill="#4d509d" stroke-width="0"/>
      <rect x="66.37" y="57.8" width="2.14" height="2.14" fill="#4d509d" stroke-width="0"/>
      <rect x="17.13" y="59.94" width="2.14" height="2.14" fill="#4d509d" stroke-width="0"/>
      <rect x="21.41" y="59.94" width="2.14" height="2.14" fill="#4d509d" stroke-width="0"/>
      <rect x="25.69" y="59.94" width="2.14" height="2.14" fill="#4d509d" stroke-width="0"/>
      <rect x="34.25" y="59.94" width="2.14" height="2.14" fill="#4d509d" stroke-width="0"/>
      <rect x="38.54" y="59.94" width="2.14" height="2.14" fill="#4d509d" stroke-width="0"/>
      <rect x="44.96" y="59.94" width="2.14" height="2.14" fill="#4d509d" stroke-width="0"/>
      <rect x="49.24" y="59.94" width="2.14" height="2.14" fill="#4d509d" stroke-width="0"/>
      <rect x="51.38" y="59.94" width="2.14" height="2.14" fill="#4d509d" stroke-width="0"/>
      <rect x="53.52" y="59.94" width="2.14" height="2.14" fill="#4d509d" stroke-width="0"/>
      <rect x="55.66" y="59.94" width="2.14" height="2.14" fill="#4d509d" stroke-width="0"/>
      <rect x="57.8" y="59.94" width="2.14" height="2.14" fill="#4d509d" stroke-width="0"/>
      <rect x="59.94" y="59.94" width="2.14" height="2.14" fill="#4d509d" stroke-width="0"/>
      <rect x="62.09" y="59.94" width="2.14" height="2.14" fill="#4d509d" stroke-width="0"/>
      <rect x="66.37" y="59.94" width="2.14" height="2.14" fill="#4d509d" stroke-width="0"/>
      <rect x="17.13" y="62.09" width="2.14" height="2.14" fill="#4d509d" stroke-width="0"/>
      <rect x="25.69" y="62.09" width="2.14" height="2.14" fill="#4d509d" stroke-width="0"/>
      <rect x="29.97" y="62.09" width="2.14" height="2.14" fill="#4d509d" stroke-width="0"/>
      <rect x="32.11" y="62.09" width="2.14" height="2.14" fill="#4d509d" stroke-width="0"/>
      <rect x="38.54" y="62.09" width="2.14" height="2.14" fill="#4d509d" stroke-width="0"/>
      <rect x="40.68" y="62.09" width="2.14" height="2.14" fill="#4d509d" stroke-width="0"/>
      <rect x="42.82" y="62.09" width="2.14" height="2.14" fill="#4d509d" stroke-width="0"/>
      <rect x="44.96" y="62.09" width="2.14" height="2.14" fill="#4d509d" stroke-width="0"/>
      <rect x="49.24" y="62.09" width="2.14" height="2.14" fill="#4d509d" stroke-width="0"/>
      <rect x="51.38" y="62.09" width="2.14" height="2.14" fill="#4d509d" stroke-width="0"/>
      <rect x="53.52" y="62.09" width="2.14" height="2.14" fill="#4d509d" stroke-width="0"/>
      <rect x="57.8" y="62.09" width="2.14" height="2.14" fill="#4d509d" stroke-width="0"/>
      <rect x="62.09" y="62.09" width="2.14" height="2.14" fill="#4d509d" stroke-width="0"/>
      <rect x="64.23" y="62.09" width="2.14" height="2.14" fill="#4d509d" stroke-width="0"/>
      <rect x="66.37" y="62.09" width="2.14" height="2.14" fill="#4d509d" stroke-width="0"/>
      <rect x="21.41" y="64.23" width="2.14" height="2.14" fill="#4d509d" stroke-width="0"/>
      <rect x="23.55" y="64.23" width="2.14" height="2.14" fill="#4d509d" stroke-width="0"/>
      <rect x="25.69" y="64.23" width="2.14" height="2.14" fill="#4d509d" stroke-width="0"/>
      <rect x="27.83" y="64.23" width="2.14" height="2.14" fill="#4d509d" stroke-width="0"/>
      <rect x="29.97" y="64.23" width="2.14" height="2.14" fill="#4d509d" stroke-width="0"/>
      <rect x="36.4" y="64.23" width="2.14" height="2.14" fill="#4d509d" stroke-width="0"/>
      <rect x="38.54" y="64.23" width="2.14" height="2.14" fill="#4d509d" stroke-width="0"/>
      <rect x="40.68" y="64.23" width="2.14" height="2.14" fill="#4d509d" stroke-width="0"/>
      <rect x="59.94" y="64.23" width="2.14" height="2.14" fill="#4d509d" stroke-width="0"/>
      <rect x="64.23" y="64.23" width="2.14" height="2.14" fill="#4d509d" stroke-width="0"/>
      <rect x="66.37" y="64.23" width="2.14" height="2.14" fill="#4d509d" stroke-width="0"/>
      <rect x="68.51" y="64.23" width="2.14" height="2.14" fill="#4d509d" stroke-width="0"/>
      <rect x="21.41" y="66.37" width="2.14" height="2.14" fill="#4d509d" stroke-width="0"/>
      <rect x="25.69" y="66.37" width="2.14" height="2.14" fill="#4d509d" stroke-width="0"/>
      <rect x="36.4" y="66.37" width="2.14" height="2.14" fill="#4d509d" stroke-width="0"/>
      <rect x="44.96" y="66.37" width="2.14" height="2.14" fill="#4d509d" stroke-width="0"/>
      <rect x="49.24" y="66.37" width="2.14" height="2.14" fill="#4d509d" stroke-width="0"/>
      <rect x="53.52" y="66.37" width="2.14" height="2.14" fill="#4d509d" stroke-width="0"/>
      <rect x="55.66" y="66.37" width="2.14" height="2.14" fill="#4d509d" stroke-width="0"/>
      <rect x="64.23" y="66.37" width="2.14" height="2.14" fill="#4d509d" stroke-width="0"/>
      <rect x="66.37" y="66.37" width="2.14" height="2.14" fill="#4d509d" stroke-width="0"/>
      <rect x="68.51" y="66.37" width="2.14" height="2.14" fill="#4d509d" stroke-width="0"/>
      <rect x="19.27" y="68.51" width="2.14" height="2.14" fill="#4d509d" stroke-width="0"/>
      <rect x="25.69" y="68.51" width="2.14" height="2.14" fill="#4d509d" stroke-width="0"/>
      <rect x="32.11" y="68.51" width="2.14" height="2.14" fill="#4d509d" stroke-width="0"/>
      <rect x="34.25" y="68.51" width="2.14" height="2.14" fill="#4d509d" stroke-width="0"/>
      <rect x="44.96" y="68.51" width="2.14" height="2.14" fill="#4d509d" stroke-width="0"/>
      <rect x="51.38" y="68.51" width="2.14" height="2.14" fill="#4d509d" stroke-width="0"/>
      <rect x="55.66" y="68.51" width="2.14" height="2.14" fill="#4d509d" stroke-width="0"/>
      <rect x="59.94" y="68.51" width="2.14" height="2.14" fill="#4d509d" stroke-width="0"/>
      <rect x="62.09" y="68.51" width="2.14" height="2.14" fill="#4d509d" stroke-width="0"/>
      <rect x="64.23" y="68.51" width="2.14" height="2.14" fill="#4d509d" stroke-width="0"/>
      <g>
        <rect x="2.25" y="2.25" width="10.49" height="10.49" fill="none" stroke-width="0"/>
        <path d="M12.74,0H0v14.99h14.99V0h-2.25ZM12.74,12.74H2.25V2.25h10.49v10.49Z" fill="#4d509d" stroke-width="0"/>
      </g>
      <g>
        <rect x="57.91" y="2.25" width="10.49" height="10.49" fill="none" stroke-width="0"/>
        <path d="M68.4,0h-12.74v14.99h14.99V0h-2.25ZM68.4,12.74h-10.49V2.25h10.49v10.49Z" fill="#4d509d" stroke-width="0"/>
      </g>
      <g>
        <rect x="2.25" y="57.91" width="10.49" height="10.49" fill="none" stroke-width="0"/>
        <path d="M12.74,55.66H0v14.99h14.99v-14.99h-2.25ZM12.74,68.4H2.25v-10.49h10.49v10.49Z" fill="#4d509d" stroke-width="0"/>
      </g>
      <rect x="4.28" y="4.28" width="6.42" height="6.42" fill="#4d509d" stroke-width="0"/>
      <rect x="59.94" y="4.28" width="6.42" height="6.42" fill="#4d509d" stroke-width="0"/>
      <rect x="4.28" y="59.94" width="6.42" height="6.42" fill="#4d509d" stroke-width="0"/>
    </g>
  </g>
</svg>